<?xml version="1.0" encoding="UTF-8" standalone="no"?>
<!DOCTYPE svg PUBLIC "-//W3C//DTD SVG 1.1//EN"
 "http://www.w3.org/Graphics/SVG/1.1/DTD/svg11.dtd">
<!-- Generated by graphviz version 2.43.0 (0)
 -->
<!-- Title: G Pages: 1 -->
<svg width="673pt" height="587pt"
 viewBox="0.00 0.00 673.47 587.45" xmlns="http://www.w3.org/2000/svg" xmlns:xlink="http://www.w3.org/1999/xlink">
<g id="graph0" class="graph" transform="scale(1 1) rotate(0) translate(4 583.45)">
<title>G</title>
<polygon fill="white" stroke="transparent" points="-4,4 -4,-583.45 669.47,-583.45 669.47,4 -4,4"/>
<!-- board.cache_hierarchy.ruby_system.network.xbar -->
<g id="node1" class="node">
<title>board.cache_hierarchy.ruby_system.network.xbar</title>
<path fill="#cce6fc" stroke="#000000" d="M317.5,-268.69C317.5,-268.69 347.5,-268.69 347.5,-268.69 353.5,-268.69 359.5,-274.69 359.5,-280.69 359.5,-280.69 359.5,-292.69 359.5,-292.69 359.5,-298.69 353.5,-304.69 347.5,-304.69 347.5,-304.69 317.5,-304.69 317.5,-304.69 311.5,-304.69 305.5,-298.69 305.5,-292.69 305.5,-292.69 305.5,-280.69 305.5,-280.69 305.5,-274.69 311.5,-268.69 317.5,-268.69"/>
<text text-anchor="middle" x="332.5" y="-282.99" font-family="Arial" font-size="14.00" fill="#000000">R 0</text>
</g>
<!-- board.cache_hierarchy.ruby_system.network.l1_switch_0 -->
<g id="node2" class="node">
<title>board.cache_hierarchy.ruby_system.network.l1_switch_0</title>
<path fill="#cce6fc" stroke="#000000" d="M259.02,-93.56C259.02,-93.56 289.02,-93.56 289.02,-93.56 295.02,-93.56 301.02,-99.56 301.02,-105.56 301.02,-105.56 301.02,-117.56 301.02,-117.56 301.02,-123.56 295.02,-129.56 289.02,-129.56 289.02,-129.56 259.02,-129.56 259.02,-129.56 253.02,-129.56 247.02,-123.56 247.02,-117.56 247.02,-117.56 247.02,-105.56 247.02,-105.56 247.02,-99.56 253.02,-93.56 259.02,-93.56"/>
<text text-anchor="middle" x="274.02" y="-107.86" font-family="Arial" font-size="14.00" fill="#000000">R 1</text>
</g>
<!-- board.cache_hierarchy.ruby_system.network.l2_switch_0 -->
<g id="node3" class="node">
<title>board.cache_hierarchy.ruby_system.network.l2_switch_0</title>
<path fill="#cce6fc" stroke="#000000" d="M302.71,-186.43C302.71,-186.43 332.71,-186.43 332.71,-186.43 338.71,-186.43 344.71,-192.43 344.71,-198.43 344.71,-198.43 344.71,-210.43 344.71,-210.43 344.71,-216.43 338.71,-222.43 332.71,-222.43 332.71,-222.43 302.71,-222.43 302.71,-222.43 296.71,-222.43 290.71,-216.43 290.71,-210.43 290.71,-210.43 290.71,-198.43 290.71,-198.43 290.71,-192.43 296.71,-186.43 302.71,-186.43"/>
<text text-anchor="middle" x="317.71" y="-200.73" font-family="Arial" font-size="14.00" fill="#000000">R 2</text>
</g>
<!-- board.cache_hierarchy.ruby_system.network.l1_switch_0&#45;&#45;board.cache_hierarchy.ruby_system.network.l2_switch_0 -->
<g id="edge1" class="edge">
<title>board.cache_hierarchy.ruby_system.network.l1_switch_0&#45;&#45;board.cache_hierarchy.ruby_system.network.l2_switch_0</title>
<path fill="none" stroke="#042d50" d="M282.65,-129.91C288.93,-143.27 297.55,-161.59 304.67,-176.72"/>
<polygon fill="#042d50" stroke="#042d50" points="301.67,-178.56 309.1,-186.12 308.01,-175.58 301.67,-178.56"/>
</g>
<!-- board.cache_hierarchy.ruby_system.network.l2_switch_0&#45;&#45;board.cache_hierarchy.ruby_system.network.xbar -->
<g id="edge2" class="edge">
<title>board.cache_hierarchy.ruby_system.network.l2_switch_0&#45;&#45;board.cache_hierarchy.ruby_system.network.xbar</title>
<path fill="none" stroke="#042d50" d="M320.99,-222.69C322.89,-233.23 325.31,-246.72 327.45,-258.59"/>
<polygon fill="#042d50" stroke="#042d50" points="324.01,-259.26 329.23,-268.49 330.9,-258.03 324.01,-259.26"/>
</g>
<!-- board.cache_hierarchy.ruby_system.network.l1_switch_1 -->
<g id="node4" class="node">
<title>board.cache_hierarchy.ruby_system.network.l1_switch_1</title>
<path fill="#cce6fc" stroke="#000000" d="M137.16,-213.32C137.16,-213.32 167.16,-213.32 167.16,-213.32 173.16,-213.32 179.16,-219.32 179.16,-225.32 179.16,-225.32 179.16,-237.32 179.16,-237.32 179.16,-243.32 173.16,-249.32 167.16,-249.32 167.16,-249.32 137.16,-249.32 137.16,-249.32 131.16,-249.32 125.16,-243.32 125.16,-237.32 125.16,-237.32 125.16,-225.32 125.16,-225.32 125.16,-219.32 131.16,-213.32 137.16,-213.32"/>
<text text-anchor="middle" x="152.16" y="-227.62" font-family="Arial" font-size="14.00" fill="#000000">R 3</text>
</g>
<!-- board.cache_hierarchy.ruby_system.network.l2_switch_1 -->
<g id="node5" class="node">
<title>board.cache_hierarchy.ruby_system.network.l2_switch_1</title>
<path fill="#cce6fc" stroke="#000000" d="M235.89,-250.78C235.89,-250.78 265.89,-250.78 265.89,-250.78 271.89,-250.78 277.89,-256.78 277.89,-262.78 277.89,-262.78 277.89,-274.78 277.89,-274.78 277.89,-280.78 271.89,-286.78 265.89,-286.78 265.89,-286.78 235.89,-286.78 235.89,-286.78 229.89,-286.78 223.89,-280.78 223.89,-274.78 223.89,-274.78 223.89,-262.78 223.89,-262.78 223.89,-256.78 229.89,-250.78 235.89,-250.78"/>
<text text-anchor="middle" x="250.89" y="-265.08" font-family="Arial" font-size="14.00" fill="#000000">R 4</text>
</g>
<!-- board.cache_hierarchy.ruby_system.network.l1_switch_1&#45;&#45;board.cache_hierarchy.ruby_system.network.l2_switch_1 -->
<g id="edge3" class="edge">
<title>board.cache_hierarchy.ruby_system.network.l1_switch_1&#45;&#45;board.cache_hierarchy.ruby_system.network.l2_switch_1</title>
<path fill="none" stroke="#042d50" d="M179.4,-241.66C190.19,-245.75 202.76,-250.52 214.32,-254.91"/>
<polygon fill="#042d50" stroke="#042d50" points="213.14,-258.21 223.73,-258.48 215.63,-251.66 213.14,-258.21"/>
</g>
<!-- board.cache_hierarchy.ruby_system.network.l2_switch_1&#45;&#45;board.cache_hierarchy.ruby_system.network.xbar -->
<g id="edge4" class="edge">
<title>board.cache_hierarchy.ruby_system.network.l2_switch_1&#45;&#45;board.cache_hierarchy.ruby_system.network.xbar</title>
<path fill="none" stroke="#042d50" d="M278.06,-274.75C283.71,-275.99 289.74,-277.31 295.67,-278.61"/>
<polygon fill="#042d50" stroke="#042d50" points="294.93,-282.03 305.44,-280.75 296.43,-275.19 294.93,-282.03"/>
</g>
<!-- board.cache_hierarchy.ruby_system.network.l1_switch_2 -->
<g id="node6" class="node">
<title>board.cache_hierarchy.ruby_system.network.l1_switch_2</title>
<path fill="#cce6fc" stroke="#000000" d="M168.73,-381.87C168.73,-381.87 198.73,-381.87 198.73,-381.87 204.73,-381.87 210.73,-387.87 210.73,-393.87 210.73,-393.87 210.73,-405.87 210.73,-405.87 210.73,-411.87 204.73,-417.87 198.73,-417.87 198.73,-417.87 168.73,-417.87 168.73,-417.87 162.73,-417.87 156.73,-411.87 156.73,-405.87 156.73,-405.87 156.73,-393.87 156.73,-393.87 156.73,-387.87 162.73,-381.87 168.73,-381.87"/>
<text text-anchor="middle" x="183.73" y="-396.17" font-family="Arial" font-size="14.00" fill="#000000">R 5</text>
</g>
<!-- board.cache_hierarchy.ruby_system.network.l2_switch_2 -->
<g id="node7" class="node">
<title>board.cache_hierarchy.ruby_system.network.l2_switch_2</title>
<path fill="#cce6fc" stroke="#000000" d="M247.45,-311.48C247.45,-311.48 277.45,-311.48 277.45,-311.48 283.45,-311.48 289.45,-317.48 289.45,-323.48 289.45,-323.48 289.45,-335.48 289.45,-335.48 289.45,-341.48 283.45,-347.48 277.45,-347.48 277.45,-347.48 247.45,-347.48 247.45,-347.48 241.45,-347.48 235.45,-341.48 235.45,-335.48 235.45,-335.48 235.45,-323.48 235.45,-323.48 235.45,-317.48 241.45,-311.48 247.45,-311.48"/>
<text text-anchor="middle" x="262.45" y="-325.78" font-family="Arial" font-size="14.00" fill="#000000">R 6</text>
</g>
<!-- board.cache_hierarchy.ruby_system.network.l1_switch_2&#45;&#45;board.cache_hierarchy.ruby_system.network.l2_switch_2 -->
<g id="edge5" class="edge">
<title>board.cache_hierarchy.ruby_system.network.l1_switch_2&#45;&#45;board.cache_hierarchy.ruby_system.network.l2_switch_2</title>
<path fill="none" stroke="#042d50" d="M204,-381.74C213.37,-373.37 224.63,-363.29 234.77,-354.23"/>
<polygon fill="#042d50" stroke="#042d50" points="237.12,-356.82 242.24,-347.55 232.46,-351.6 237.12,-356.82"/>
</g>
<!-- board.cache_hierarchy.ruby_system.network.l2_switch_2&#45;&#45;board.cache_hierarchy.ruby_system.network.xbar -->
<g id="edge6" class="edge">
<title>board.cache_hierarchy.ruby_system.network.l2_switch_2&#45;&#45;board.cache_hierarchy.ruby_system.network.xbar</title>
<path fill="none" stroke="#042d50" d="M289.73,-312.81C291.95,-311.46 294.21,-310.08 296.48,-308.69"/>
<polygon fill="#042d50" stroke="#042d50" points="298.47,-311.58 305.18,-303.38 294.82,-305.61 298.47,-311.58"/>
</g>
<!-- board.cache_hierarchy.ruby_system.network.l1_switch_3 -->
<g id="node8" class="node">
<title>board.cache_hierarchy.ruby_system.network.l1_switch_3</title>
<path fill="#cce6fc" stroke="#000000" d="M241.07,-99.69C241.07,-99.69 271.07,-99.69 271.07,-99.69 277.07,-99.69 283.07,-105.69 283.07,-111.69 283.07,-111.69 283.07,-123.69 283.07,-123.69 283.07,-129.69 277.07,-135.69 271.07,-135.69 271.07,-135.69 241.07,-135.69 241.07,-135.69 235.07,-135.69 229.07,-129.69 229.07,-123.69 229.07,-123.69 229.07,-111.69 229.07,-111.69 229.07,-105.69 235.07,-99.69 241.07,-99.69"/>
<text text-anchor="middle" x="256.07" y="-113.99" font-family="Arial" font-size="14.00" fill="#000000">R 7</text>
</g>
<!-- board.cache_hierarchy.ruby_system.network.l2_switch_3 -->
<g id="node9" class="node">
<title>board.cache_hierarchy.ruby_system.network.l2_switch_3</title>
<path fill="#cce6fc" stroke="#000000" d="M274.76,-196.81C274.76,-196.81 304.76,-196.81 304.76,-196.81 310.76,-196.81 316.76,-202.81 316.76,-208.81 316.76,-208.81 316.76,-220.81 316.76,-220.81 316.76,-226.81 310.76,-232.81 304.76,-232.81 304.76,-232.81 274.76,-232.81 274.76,-232.81 268.76,-232.81 262.76,-226.81 262.76,-220.81 262.76,-220.81 262.76,-208.81 262.76,-208.81 262.76,-202.81 268.76,-196.81 274.76,-196.81"/>
<text text-anchor="middle" x="289.76" y="-211.11" font-family="Arial" font-size="14.00" fill="#000000">R 8</text>
</g>
<!-- board.cache_hierarchy.ruby_system.network.l1_switch_3&#45;&#45;board.cache_hierarchy.ruby_system.network.l2_switch_3 -->
<g id="edge7" class="edge">
<title>board.cache_hierarchy.ruby_system.network.l1_switch_3&#45;&#45;board.cache_hierarchy.ruby_system.network.l2_switch_3</title>
<path fill="none" stroke="#042d50" d="M262.41,-135.96C267.4,-150.34 274.43,-170.62 280.12,-187.01"/>
<polygon fill="#042d50" stroke="#042d50" points="276.87,-188.33 283.46,-196.63 283.48,-186.03 276.87,-188.33"/>
</g>
<!-- board.cache_hierarchy.ruby_system.network.l2_switch_3&#45;&#45;board.cache_hierarchy.ruby_system.network.xbar -->
<g id="edge8" class="edge">
<title>board.cache_hierarchy.ruby_system.network.l2_switch_3&#45;&#45;board.cache_hierarchy.ruby_system.network.xbar</title>
<path fill="none" stroke="#042d50" d="M300.55,-232.95C305.32,-240.98 311.03,-250.59 316.3,-259.45"/>
<polygon fill="#042d50" stroke="#042d50" points="313.45,-261.5 321.57,-268.31 319.47,-257.92 313.45,-261.5"/>
</g>
<!-- board.cache_hierarchy.ruby_system.network.l1_switch_4 -->
<g id="node10" class="node">
<title>board.cache_hierarchy.ruby_system.network.l1_switch_4</title>
<path fill="#cce6fc" stroke="#000000" d="M172.92,-147.3C172.92,-147.3 202.92,-147.3 202.92,-147.3 208.92,-147.3 214.92,-153.3 214.92,-159.3 214.92,-159.3 214.92,-171.3 214.92,-171.3 214.92,-177.3 208.92,-183.3 202.92,-183.3 202.92,-183.3 172.92,-183.3 172.92,-183.3 166.92,-183.3 160.92,-177.3 160.92,-171.3 160.92,-171.3 160.92,-159.3 160.92,-159.3 160.92,-153.3 166.92,-147.3 172.92,-147.3"/>
<text text-anchor="middle" x="187.92" y="-161.6" font-family="Arial" font-size="14.00" fill="#000000">R 9</text>
</g>
<!-- board.cache_hierarchy.ruby_system.network.l2_switch_4 -->
<g id="node11" class="node">
<title>board.cache_hierarchy.ruby_system.network.l2_switch_4</title>
<path fill="#cce6fc" stroke="#000000" d="M248.46,-219.59C248.46,-219.59 278.46,-219.59 278.46,-219.59 284.46,-219.59 290.46,-225.59 290.46,-231.59 290.46,-231.59 290.46,-243.59 290.46,-243.59 290.46,-249.59 284.46,-255.59 278.46,-255.59 278.46,-255.59 248.46,-255.59 248.46,-255.59 242.46,-255.59 236.46,-249.59 236.46,-243.59 236.46,-243.59 236.46,-231.59 236.46,-231.59 236.46,-225.59 242.46,-219.59 248.46,-219.59"/>
<text text-anchor="middle" x="263.46" y="-233.89" font-family="Arial" font-size="14.00" fill="#000000">R 10</text>
</g>
<!-- board.cache_hierarchy.ruby_system.network.l1_switch_4&#45;&#45;board.cache_hierarchy.ruby_system.network.l2_switch_4 -->
<g id="edge9" class="edge">
<title>board.cache_hierarchy.ruby_system.network.l1_switch_4&#45;&#45;board.cache_hierarchy.ruby_system.network.l2_switch_4</title>
<path fill="none" stroke="#042d50" d="M206.98,-183.55C216.11,-192.28 227.18,-202.87 237.1,-212.36"/>
<polygon fill="#042d50" stroke="#042d50" points="234.76,-214.97 244.41,-219.36 239.6,-209.91 234.76,-214.97"/>
</g>
<!-- board.cache_hierarchy.ruby_system.network.l2_switch_4&#45;&#45;board.cache_hierarchy.ruby_system.network.xbar -->
<g id="edge10" class="edge">
<title>board.cache_hierarchy.ruby_system.network.l2_switch_4&#45;&#45;board.cache_hierarchy.ruby_system.network.xbar</title>
<path fill="none" stroke="#042d50" d="M288.78,-255.59C292.06,-257.93 295.46,-260.35 298.86,-262.76"/>
<polygon fill="#042d50" stroke="#042d50" points="297.01,-265.75 307.19,-268.69 301.07,-260.04 297.01,-265.75"/>
</g>
<!-- board.cache_hierarchy.ruby_system.network.l1_switch_5 -->
<g id="node12" class="node">
<title>board.cache_hierarchy.ruby_system.network.l1_switch_5</title>
<path fill="#cce6fc" stroke="#000000" d="M495.37,-323.94C495.37,-323.94 525.37,-323.94 525.37,-323.94 531.37,-323.94 537.37,-329.94 537.37,-335.94 537.37,-335.94 537.37,-347.94 537.37,-347.94 537.37,-353.94 531.37,-359.94 525.37,-359.94 525.37,-359.94 495.37,-359.94 495.37,-359.94 489.37,-359.94 483.37,-353.94 483.37,-347.94 483.37,-347.94 483.37,-335.94 483.37,-335.94 483.37,-329.94 489.37,-323.94 495.37,-323.94"/>
<text text-anchor="middle" x="510.37" y="-338.24" font-family="Arial" font-size="14.00" fill="#000000">R 11</text>
</g>
<!-- board.cache_hierarchy.ruby_system.network.l2_switch_5 -->
<g id="node13" class="node">
<title>board.cache_hierarchy.ruby_system.network.l2_switch_5</title>
<path fill="#cce6fc" stroke="#000000" d="M398.82,-286.47C398.82,-286.47 428.82,-286.47 428.82,-286.47 434.82,-286.47 440.82,-292.47 440.82,-298.47 440.82,-298.47 440.82,-310.47 440.82,-310.47 440.82,-316.47 434.82,-322.47 428.82,-322.47 428.82,-322.47 398.82,-322.47 398.82,-322.47 392.82,-322.47 386.82,-316.47 386.82,-310.47 386.82,-310.47 386.82,-298.47 386.82,-298.47 386.82,-292.47 392.82,-286.47 398.82,-286.47"/>
<text text-anchor="middle" x="413.82" y="-300.77" font-family="Arial" font-size="14.00" fill="#000000">R 12</text>
</g>
<!-- board.cache_hierarchy.ruby_system.network.l1_switch_5&#45;&#45;board.cache_hierarchy.ruby_system.network.l2_switch_5 -->
<g id="edge11" class="edge">
<title>board.cache_hierarchy.ruby_system.network.l1_switch_5&#45;&#45;board.cache_hierarchy.ruby_system.network.l2_switch_5</title>
<path fill="none" stroke="#042d50" d="M483.21,-331.4C473.14,-327.49 461.53,-322.99 450.73,-318.79"/>
<polygon fill="#042d50" stroke="#042d50" points="451.69,-315.41 441.1,-315.06 449.16,-321.94 451.69,-315.41"/>
</g>
<!-- board.cache_hierarchy.ruby_system.network.l2_switch_5&#45;&#45;board.cache_hierarchy.ruby_system.network.xbar -->
<g id="edge12" class="edge">
<title>board.cache_hierarchy.ruby_system.network.l2_switch_5&#45;&#45;board.cache_hierarchy.ruby_system.network.xbar</title>
<path fill="none" stroke="#042d50" d="M386.74,-298.55C381.31,-297.37 375.52,-296.1 369.81,-294.85"/>
<polygon fill="#042d50" stroke="#042d50" points="370.25,-291.36 359.74,-292.65 368.76,-298.2 370.25,-291.36"/>
</g>
<!-- board.cache_hierarchy.ruby_system.network.l1_switch_6 -->
<g id="node14" class="node">
<title>board.cache_hierarchy.ruby_system.network.l1_switch_6</title>
<path fill="#cce6fc" stroke="#000000" d="M374.13,-91.01C374.13,-91.01 404.13,-91.01 404.13,-91.01 410.13,-91.01 416.13,-97.01 416.13,-103.01 416.13,-103.01 416.13,-115.01 416.13,-115.01 416.13,-121.01 410.13,-127.01 404.13,-127.01 404.13,-127.01 374.13,-127.01 374.13,-127.01 368.13,-127.01 362.13,-121.01 362.13,-115.01 362.13,-115.01 362.13,-103.01 362.13,-103.01 362.13,-97.01 368.13,-91.01 374.13,-91.01"/>
<text text-anchor="middle" x="389.13" y="-105.31" font-family="Arial" font-size="14.00" fill="#000000">R 13</text>
</g>
<!-- board.cache_hierarchy.ruby_system.network.l2_switch_6 -->
<g id="node15" class="node">
<title>board.cache_hierarchy.ruby_system.network.l2_switch_6</title>
<path fill="#cce6fc" stroke="#000000" d="M359.44,-195.75C359.44,-195.75 389.44,-195.75 389.44,-195.75 395.44,-195.75 401.44,-201.75 401.44,-207.75 401.44,-207.75 401.44,-219.75 401.44,-219.75 401.44,-225.75 395.44,-231.75 389.44,-231.75 389.44,-231.75 359.44,-231.75 359.44,-231.75 353.44,-231.75 347.44,-225.75 347.44,-219.75 347.44,-219.75 347.44,-207.75 347.44,-207.75 347.44,-201.75 353.44,-195.75 359.44,-195.75"/>
<text text-anchor="middle" x="374.44" y="-210.05" font-family="Arial" font-size="14.00" fill="#000000">R 14</text>
</g>
<!-- board.cache_hierarchy.ruby_system.network.l1_switch_6&#45;&#45;board.cache_hierarchy.ruby_system.network.l2_switch_6 -->
<g id="edge13" class="edge">
<title>board.cache_hierarchy.ruby_system.network.l1_switch_6&#45;&#45;board.cache_hierarchy.ruby_system.network.l2_switch_6</title>
<path fill="none" stroke="#042d50" d="M386.57,-127.25C384.3,-143.4 380.96,-167.21 378.36,-185.76"/>
<polygon fill="#042d50" stroke="#042d50" points="374.89,-185.32 376.97,-195.71 381.82,-186.29 374.89,-185.32"/>
</g>
<!-- board.cache_hierarchy.ruby_system.network.l2_switch_6&#45;&#45;board.cache_hierarchy.ruby_system.network.xbar -->
<g id="edge14" class="edge">
<title>board.cache_hierarchy.ruby_system.network.l2_switch_6&#45;&#45;board.cache_hierarchy.ruby_system.network.xbar</title>
<path fill="none" stroke="#042d50" d="M364.07,-231.78C359.23,-240.19 353.37,-250.39 348.02,-259.7"/>
<polygon fill="#042d50" stroke="#042d50" points="344.84,-258.2 342.89,-268.61 350.91,-261.69 344.84,-258.2"/>
</g>
<!-- board.cache_hierarchy.ruby_system.network.l1_switch_7 -->
<g id="node16" class="node">
<title>board.cache_hierarchy.ruby_system.network.l1_switch_7</title>
<path fill="#cce6fc" stroke="#000000" d="M469.51,-155.76C469.51,-155.76 499.51,-155.76 499.51,-155.76 505.51,-155.76 511.51,-161.76 511.51,-167.76 511.51,-167.76 511.51,-179.76 511.51,-179.76 511.51,-185.76 505.51,-191.76 499.51,-191.76 499.51,-191.76 469.51,-191.76 469.51,-191.76 463.51,-191.76 457.51,-185.76 457.51,-179.76 457.51,-179.76 457.51,-167.76 457.51,-167.76 457.51,-161.76 463.51,-155.76 469.51,-155.76"/>
<text text-anchor="middle" x="484.51" y="-170.06" font-family="Arial" font-size="14.00" fill="#000000">R 15</text>
</g>
<!-- board.cache_hierarchy.ruby_system.network.l2_switch_7 -->
<g id="node17" class="node">
<title>board.cache_hierarchy.ruby_system.network.l2_switch_7</title>
<path fill="#cce6fc" stroke="#000000" d="M389.9,-224.43C389.9,-224.43 419.9,-224.43 419.9,-224.43 425.9,-224.43 431.9,-230.43 431.9,-236.43 431.9,-236.43 431.9,-248.43 431.9,-248.43 431.9,-254.43 425.9,-260.43 419.9,-260.43 419.9,-260.43 389.9,-260.43 389.9,-260.43 383.9,-260.43 377.9,-254.43 377.9,-248.43 377.9,-248.43 377.9,-236.43 377.9,-236.43 377.9,-230.43 383.9,-224.43 389.9,-224.43"/>
<text text-anchor="middle" x="404.9" y="-238.73" font-family="Arial" font-size="14.00" fill="#000000">R 16</text>
</g>
<!-- board.cache_hierarchy.ruby_system.network.l1_switch_7&#45;&#45;board.cache_hierarchy.ruby_system.network.l2_switch_7 -->
<g id="edge15" class="edge">
<title>board.cache_hierarchy.ruby_system.network.l1_switch_7&#45;&#45;board.cache_hierarchy.ruby_system.network.l2_switch_7</title>
<path fill="none" stroke="#042d50" d="M463.59,-191.8C454.43,-199.7 443.54,-209.1 433.63,-217.64"/>
<polygon fill="#042d50" stroke="#042d50" points="431.24,-215.08 425.95,-224.27 435.81,-220.39 431.24,-215.08"/>
</g>
<!-- board.cache_hierarchy.ruby_system.network.l2_switch_7&#45;&#45;board.cache_hierarchy.ruby_system.network.xbar -->
<g id="edge16" class="edge">
<title>board.cache_hierarchy.ruby_system.network.l2_switch_7&#45;&#45;board.cache_hierarchy.ruby_system.network.xbar</title>
<path fill="none" stroke="#042d50" d="M377.53,-259.16C374.56,-260.98 371.5,-262.85 368.44,-264.72"/>
<polygon fill="#042d50" stroke="#042d50" points="366.62,-261.73 359.91,-269.93 370.27,-267.7 366.62,-261.73"/>
</g>
<!-- board.cache_hierarchy.ruby_system.network.l1_switch_8 -->
<g id="node18" class="node">
<title>board.cache_hierarchy.ruby_system.network.l1_switch_8</title>
<path fill="#cce6fc" stroke="#000000" d="M302.85,-450.28C302.85,-450.28 332.85,-450.28 332.85,-450.28 338.85,-450.28 344.85,-456.28 344.85,-462.28 344.85,-462.28 344.85,-474.28 344.85,-474.28 344.85,-480.28 338.85,-486.28 332.85,-486.28 332.85,-486.28 302.85,-486.28 302.85,-486.28 296.85,-486.28 290.85,-480.28 290.85,-474.28 290.85,-474.28 290.85,-462.28 290.85,-462.28 290.85,-456.28 296.85,-450.28 302.85,-450.28"/>
<text text-anchor="middle" x="317.85" y="-464.58" font-family="Arial" font-size="14.00" fill="#000000">R 17</text>
</g>
<!-- board.cache_hierarchy.ruby_system.network.l2_switch_8 -->
<g id="node19" class="node">
<title>board.cache_hierarchy.ruby_system.network.l2_switch_8</title>
<path fill="#cce6fc" stroke="#000000" d="M282.88,-340.73C282.88,-340.73 312.88,-340.73 312.88,-340.73 318.88,-340.73 324.88,-346.73 324.88,-352.73 324.88,-352.73 324.88,-364.73 324.88,-364.73 324.88,-370.73 318.88,-376.73 312.88,-376.73 312.88,-376.73 282.88,-376.73 282.88,-376.73 276.88,-376.73 270.88,-370.73 270.88,-364.73 270.88,-364.73 270.88,-352.73 270.88,-352.73 270.88,-346.73 276.88,-340.73 282.88,-340.73"/>
<text text-anchor="middle" x="297.88" y="-355.03" font-family="Arial" font-size="14.00" fill="#000000">R 18</text>
</g>
<!-- board.cache_hierarchy.ruby_system.network.l1_switch_8&#45;&#45;board.cache_hierarchy.ruby_system.network.l2_switch_8 -->
<g id="edge17" class="edge">
<title>board.cache_hierarchy.ruby_system.network.l1_switch_8&#45;&#45;board.cache_hierarchy.ruby_system.network.l2_switch_8</title>
<path fill="none" stroke="#042d50" d="M314.55,-450.19C311.41,-432.99 306.65,-406.85 303.01,-386.91"/>
<polygon fill="#042d50" stroke="#042d50" points="306.41,-386.06 301.18,-376.85 299.53,-387.32 306.41,-386.06"/>
</g>
<!-- board.cache_hierarchy.ruby_system.network.l2_switch_8&#45;&#45;board.cache_hierarchy.ruby_system.network.xbar -->
<g id="edge18" class="edge">
<title>board.cache_hierarchy.ruby_system.network.l2_switch_8&#45;&#45;board.cache_hierarchy.ruby_system.network.xbar</title>
<path fill="none" stroke="#042d50" d="M306.61,-340.56C310.47,-332.53 315.08,-322.94 319.34,-314.08"/>
<polygon fill="#042d50" stroke="#042d50" points="322.59,-315.39 323.77,-304.86 316.28,-312.36 322.59,-315.39"/>
</g>
<!-- board.cache_hierarchy.ruby_system.network.l1_switch_9 -->
<g id="node20" class="node">
<title>board.cache_hierarchy.ruby_system.network.l1_switch_9</title>
<path fill="#cce6fc" stroke="#000000" d="M456.43,-394.79C456.43,-394.79 486.43,-394.79 486.43,-394.79 492.43,-394.79 498.43,-400.79 498.43,-406.79 498.43,-406.79 498.43,-418.79 498.43,-418.79 498.43,-424.79 492.43,-430.79 486.43,-430.79 486.43,-430.79 456.43,-430.79 456.43,-430.79 450.43,-430.79 444.43,-424.79 444.43,-418.79 444.43,-418.79 444.43,-406.79 444.43,-406.79 444.43,-400.79 450.43,-394.79 456.43,-394.79"/>
<text text-anchor="middle" x="471.43" y="-409.09" font-family="Arial" font-size="14.00" fill="#000000">R 19</text>
</g>
<!-- board.cache_hierarchy.ruby_system.network.l2_switch_9 -->
<g id="node21" class="node">
<title>board.cache_hierarchy.ruby_system.network.l2_switch_9</title>
<path fill="#cce6fc" stroke="#000000" d="M380.49,-327.76C380.49,-327.76 410.49,-327.76 410.49,-327.76 416.49,-327.76 422.49,-333.76 422.49,-339.76 422.49,-339.76 422.49,-351.76 422.49,-351.76 422.49,-357.76 416.49,-363.76 410.49,-363.76 410.49,-363.76 380.49,-363.76 380.49,-363.76 374.49,-363.76 368.49,-357.76 368.49,-351.76 368.49,-351.76 368.49,-339.76 368.49,-339.76 368.49,-333.76 374.49,-327.76 380.49,-327.76"/>
<text text-anchor="middle" x="395.49" y="-342.06" font-family="Arial" font-size="14.00" fill="#000000">R 20</text>
</g>
<!-- board.cache_hierarchy.ruby_system.network.l1_switch_9&#45;&#45;board.cache_hierarchy.ruby_system.network.l2_switch_9 -->
<g id="edge19" class="edge">
<title>board.cache_hierarchy.ruby_system.network.l1_switch_9&#45;&#45;board.cache_hierarchy.ruby_system.network.l2_switch_9</title>
<path fill="none" stroke="#042d50" d="M450.68,-394.47C442.32,-387.1 432.55,-378.48 423.58,-370.56"/>
<polygon fill="#042d50" stroke="#042d50" points="425.76,-367.82 415.95,-363.82 421.13,-373.06 425.76,-367.82"/>
</g>
<!-- board.cache_hierarchy.ruby_system.network.l2_switch_9&#45;&#45;board.cache_hierarchy.ruby_system.network.xbar -->
<g id="edge20" class="edge">
<title>board.cache_hierarchy.ruby_system.network.l2_switch_9&#45;&#45;board.cache_hierarchy.ruby_system.network.xbar</title>
<path fill="none" stroke="#042d50" d="M376.25,-327.72C370.98,-322.77 365.16,-317.32 359.54,-312.04"/>
<polygon fill="#042d50" stroke="#042d50" points="361.75,-309.32 352.06,-305.03 356.96,-314.43 361.75,-309.32"/>
</g>
<!-- board.cache_hierarchy.ruby_system.network.l1_switch_10 -->
<g id="node22" class="node">
<title>board.cache_hierarchy.ruby_system.network.l1_switch_10</title>
<path fill="#cce6fc" stroke="#000000" d="M281.65,-444.67C281.65,-444.67 311.65,-444.67 311.65,-444.67 317.65,-444.67 323.65,-450.67 323.65,-456.67 323.65,-456.67 323.65,-468.67 323.65,-468.67 323.65,-474.67 317.65,-480.67 311.65,-480.67 311.65,-480.67 281.65,-480.67 281.65,-480.67 275.65,-480.67 269.65,-474.67 269.65,-468.67 269.65,-468.67 269.65,-456.67 269.65,-456.67 269.65,-450.67 275.65,-444.67 281.65,-444.67"/>
<text text-anchor="middle" x="296.65" y="-458.97" font-family="Arial" font-size="14.00" fill="#000000">R 21</text>
</g>
<!-- board.cache_hierarchy.ruby_system.network.l2_switch_10 -->
<g id="node23" class="node">
<title>board.cache_hierarchy.ruby_system.network.l2_switch_10</title>
<path fill="#cce6fc" stroke="#000000" d="M326.29,-345.65C326.29,-345.65 356.29,-345.65 356.29,-345.65 362.29,-345.65 368.29,-351.65 368.29,-357.65 368.29,-357.65 368.29,-369.65 368.29,-369.65 368.29,-375.65 362.29,-381.65 356.29,-381.65 356.29,-381.65 326.29,-381.65 326.29,-381.65 320.29,-381.65 314.29,-375.65 314.29,-369.65 314.29,-369.65 314.29,-357.65 314.29,-357.65 314.29,-351.65 320.29,-345.65 326.29,-345.65"/>
<text text-anchor="middle" x="341.29" y="-359.95" font-family="Arial" font-size="14.00" fill="#000000">R 22</text>
</g>
<!-- board.cache_hierarchy.ruby_system.network.l1_switch_10&#45;&#45;board.cache_hierarchy.ruby_system.network.l2_switch_10 -->
<g id="edge21" class="edge">
<title>board.cache_hierarchy.ruby_system.network.l1_switch_10&#45;&#45;board.cache_hierarchy.ruby_system.network.l2_switch_10</title>
<path fill="none" stroke="#042d50" d="M304.84,-444.51C311.57,-429.57 321.22,-408.17 328.9,-391.14"/>
<polygon fill="#042d50" stroke="#042d50" points="332.24,-392.25 333.15,-381.7 325.85,-389.37 332.24,-392.25"/>
</g>
<!-- board.cache_hierarchy.ruby_system.network.l2_switch_10&#45;&#45;board.cache_hierarchy.ruby_system.network.xbar -->
<g id="edge22" class="edge">
<title>board.cache_hierarchy.ruby_system.network.l2_switch_10&#45;&#45;board.cache_hierarchy.ruby_system.network.xbar</title>
<path fill="none" stroke="#042d50" d="M339.21,-345.41C338.17,-336.31 336.89,-325.09 335.72,-314.9"/>
<polygon fill="#042d50" stroke="#042d50" points="339.18,-314.34 334.57,-304.8 332.23,-315.13 339.18,-314.34"/>
</g>
<!-- board.cache_hierarchy.ruby_system.network.l1_switch_11 -->
<g id="node24" class="node">
<title>board.cache_hierarchy.ruby_system.network.l1_switch_11</title>
<path fill="#cce6fc" stroke="#000000" d="M405.65,-106.16C405.65,-106.16 435.65,-106.16 435.65,-106.16 441.65,-106.16 447.65,-112.16 447.65,-118.16 447.65,-118.16 447.65,-130.16 447.65,-130.16 447.65,-136.16 441.65,-142.16 435.65,-142.16 435.65,-142.16 405.65,-142.16 405.65,-142.16 399.65,-142.16 393.65,-136.16 393.65,-130.16 393.65,-130.16 393.65,-118.16 393.65,-118.16 393.65,-112.16 399.65,-106.16 405.65,-106.16"/>
<text text-anchor="middle" x="420.65" y="-120.46" font-family="Arial" font-size="14.00" fill="#000000">R 23</text>
</g>
<!-- board.cache_hierarchy.ruby_system.network.l2_switch_11 -->
<g id="node25" class="node">
<title>board.cache_hierarchy.ruby_system.network.l2_switch_11</title>
<path fill="#cce6fc" stroke="#000000" d="M338.3,-188.29C338.3,-188.29 368.3,-188.29 368.3,-188.29 374.3,-188.29 380.3,-194.29 380.3,-200.29 380.3,-200.29 380.3,-212.29 380.3,-212.29 380.3,-218.29 374.3,-224.29 368.3,-224.29 368.3,-224.29 338.3,-224.29 338.3,-224.29 332.3,-224.29 326.3,-218.29 326.3,-212.29 326.3,-212.29 326.3,-200.29 326.3,-200.29 326.3,-194.29 332.3,-188.29 338.3,-188.29"/>
<text text-anchor="middle" x="353.3" y="-202.59" font-family="Arial" font-size="14.00" fill="#000000">R 24</text>
</g>
<!-- board.cache_hierarchy.ruby_system.network.l1_switch_11&#45;&#45;board.cache_hierarchy.ruby_system.network.l2_switch_11 -->
<g id="edge23" class="edge">
<title>board.cache_hierarchy.ruby_system.network.l1_switch_11&#45;&#45;board.cache_hierarchy.ruby_system.network.l2_switch_11</title>
<path fill="none" stroke="#042d50" d="M405.7,-142.39C396.55,-153.56 384.68,-168.02 374.56,-180.37"/>
<polygon fill="#042d50" stroke="#042d50" points="371.84,-178.17 368.2,-188.12 377.25,-182.6 371.84,-178.17"/>
</g>
<!-- board.cache_hierarchy.ruby_system.network.l2_switch_11&#45;&#45;board.cache_hierarchy.ruby_system.network.xbar -->
<g id="edge24" class="edge">
<title>board.cache_hierarchy.ruby_system.network.l2_switch_11&#45;&#45;board.cache_hierarchy.ruby_system.network.xbar</title>
<path fill="none" stroke="#042d50" d="M348.58,-224.54C345.97,-234.61 342.68,-247.34 339.76,-258.65"/>
<polygon fill="#042d50" stroke="#042d50" points="336.32,-257.96 337.2,-268.52 343.09,-259.71 336.32,-257.96"/>
</g>
<!-- board.cache_hierarchy.ruby_system.network.l1_switch_12 -->
<g id="node26" class="node">
<title>board.cache_hierarchy.ruby_system.network.l1_switch_12</title>
<path fill="#cce6fc" stroke="#000000" d="M231.06,-428.5C231.06,-428.5 261.06,-428.5 261.06,-428.5 267.06,-428.5 273.06,-434.5 273.06,-440.5 273.06,-440.5 273.06,-452.5 273.06,-452.5 273.06,-458.5 267.06,-464.5 261.06,-464.5 261.06,-464.5 231.06,-464.5 231.06,-464.5 225.06,-464.5 219.06,-458.5 219.06,-452.5 219.06,-452.5 219.06,-440.5 219.06,-440.5 219.06,-434.5 225.06,-428.5 231.06,-428.5"/>
<text text-anchor="middle" x="246.06" y="-442.8" font-family="Arial" font-size="14.00" fill="#000000">R 25</text>
</g>
<!-- board.cache_hierarchy.ruby_system.network.l2_switch_12 -->
<g id="node27" class="node">
<title>board.cache_hierarchy.ruby_system.network.l2_switch_12</title>
<path fill="#cce6fc" stroke="#000000" d="M297.52,-342.3C297.52,-342.3 327.52,-342.3 327.52,-342.3 333.52,-342.3 339.52,-348.3 339.52,-354.3 339.52,-354.3 339.52,-366.3 339.52,-366.3 339.52,-372.3 333.52,-378.3 327.52,-378.3 327.52,-378.3 297.52,-378.3 297.52,-378.3 291.52,-378.3 285.52,-372.3 285.52,-366.3 285.52,-366.3 285.52,-354.3 285.52,-354.3 285.52,-348.3 291.52,-342.3 297.52,-342.3"/>
<text text-anchor="middle" x="312.52" y="-356.6" font-family="Arial" font-size="14.00" fill="#000000">R 26</text>
</g>
<!-- board.cache_hierarchy.ruby_system.network.l1_switch_12&#45;&#45;board.cache_hierarchy.ruby_system.network.l2_switch_12 -->
<g id="edge25" class="edge">
<title>board.cache_hierarchy.ruby_system.network.l1_switch_12&#45;&#45;board.cache_hierarchy.ruby_system.network.l2_switch_12</title>
<path fill="none" stroke="#042d50" d="M260.16,-428.22C269.5,-416.1 281.9,-400.02 292.29,-386.54"/>
<polygon fill="#042d50" stroke="#042d50" points="295.11,-388.61 298.45,-378.55 289.57,-384.33 295.11,-388.61"/>
</g>
<!-- board.cache_hierarchy.ruby_system.network.l2_switch_12&#45;&#45;board.cache_hierarchy.ruby_system.network.xbar -->
<g id="edge26" class="edge">
<title>board.cache_hierarchy.ruby_system.network.l2_switch_12&#45;&#45;board.cache_hierarchy.ruby_system.network.xbar</title>
<path fill="none" stroke="#042d50" d="M317.46,-342.1C319.7,-333.87 322.39,-323.96 324.87,-314.81"/>
<polygon fill="#042d50" stroke="#042d50" points="328.31,-315.5 327.55,-304.93 321.55,-313.67 328.31,-315.5"/>
</g>
<!-- board.cache_hierarchy.ruby_system.network.l1_switch_13 -->
<g id="node28" class="node">
<title>board.cache_hierarchy.ruby_system.network.l1_switch_13</title>
<path fill="#cce6fc" stroke="#000000" d="M130.32,-289.02C130.32,-289.02 160.32,-289.02 160.32,-289.02 166.32,-289.02 172.32,-295.02 172.32,-301.02 172.32,-301.02 172.32,-313.02 172.32,-313.02 172.32,-319.02 166.32,-325.02 160.32,-325.02 160.32,-325.02 130.32,-325.02 130.32,-325.02 124.32,-325.02 118.32,-319.02 118.32,-313.02 118.32,-313.02 118.32,-301.02 118.32,-301.02 118.32,-295.02 124.32,-289.02 130.32,-289.02"/>
<text text-anchor="middle" x="145.32" y="-303.32" font-family="Arial" font-size="14.00" fill="#000000">R 27</text>
</g>
<!-- board.cache_hierarchy.ruby_system.network.l2_switch_13 -->
<g id="node29" class="node">
<title>board.cache_hierarchy.ruby_system.network.l2_switch_13</title>
<path fill="#cce6fc" stroke="#000000" d="M236.77,-286.12C236.77,-286.12 266.77,-286.12 266.77,-286.12 272.77,-286.12 278.77,-292.12 278.77,-298.12 278.77,-298.12 278.77,-310.12 278.77,-310.12 278.77,-316.12 272.77,-322.12 266.77,-322.12 266.77,-322.12 236.77,-322.12 236.77,-322.12 230.77,-322.12 224.77,-316.12 224.77,-310.12 224.77,-310.12 224.77,-298.12 224.77,-298.12 224.77,-292.12 230.77,-286.12 236.77,-286.12"/>
<text text-anchor="middle" x="251.77" y="-300.42" font-family="Arial" font-size="14.00" fill="#000000">R 28</text>
</g>
<!-- board.cache_hierarchy.ruby_system.network.l1_switch_13&#45;&#45;board.cache_hierarchy.ruby_system.network.l2_switch_13 -->
<g id="edge27" class="edge">
<title>board.cache_hierarchy.ruby_system.network.l1_switch_13&#45;&#45;board.cache_hierarchy.ruby_system.network.l2_switch_13</title>
<path fill="none" stroke="#042d50" d="M172.46,-306.28C185.22,-305.93 200.64,-305.51 214.48,-305.13"/>
<polygon fill="#042d50" stroke="#042d50" points="214.78,-308.63 224.68,-304.86 214.59,-301.63 214.78,-308.63"/>
</g>
<!-- board.cache_hierarchy.ruby_system.network.l2_switch_13&#45;&#45;board.cache_hierarchy.ruby_system.network.xbar -->
<g id="edge28" class="edge">
<title>board.cache_hierarchy.ruby_system.network.l2_switch_13&#45;&#45;board.cache_hierarchy.ruby_system.network.xbar</title>
<path fill="none" stroke="#042d50" d="M279.1,-298.22C284.42,-297.07 290.08,-295.85 295.64,-294.65"/>
<polygon fill="#042d50" stroke="#042d50" points="296.44,-298.06 305.47,-292.53 294.96,-291.21 296.44,-298.06"/>
</g>
<!-- board.cache_hierarchy.ruby_system.network.l1_switch_14 -->
<g id="node30" class="node">
<title>board.cache_hierarchy.ruby_system.network.l1_switch_14</title>
<path fill="#cce6fc" stroke="#000000" d="M463.91,-368.41C463.91,-368.41 493.91,-368.41 493.91,-368.41 499.91,-368.41 505.91,-374.41 505.91,-380.41 505.91,-380.41 505.91,-392.41 505.91,-392.41 505.91,-398.41 499.91,-404.41 493.91,-404.41 493.91,-404.41 463.91,-404.41 463.91,-404.41 457.91,-404.41 451.91,-398.41 451.91,-392.41 451.91,-392.41 451.91,-380.41 451.91,-380.41 451.91,-374.41 457.91,-368.41 463.91,-368.41"/>
<text text-anchor="middle" x="478.91" y="-382.71" font-family="Arial" font-size="14.00" fill="#000000">R 29</text>
</g>
<!-- board.cache_hierarchy.ruby_system.network.l2_switch_14 -->
<g id="node31" class="node">
<title>board.cache_hierarchy.ruby_system.network.l2_switch_14</title>
<path fill="#cce6fc" stroke="#000000" d="M364.57,-322.12C364.57,-322.12 394.57,-322.12 394.57,-322.12 400.57,-322.12 406.57,-328.12 406.57,-334.12 406.57,-334.12 406.57,-346.12 406.57,-346.12 406.57,-352.12 400.57,-358.12 394.57,-358.12 394.57,-358.12 364.57,-358.12 364.57,-358.12 358.57,-358.12 352.57,-352.12 352.57,-346.12 352.57,-346.12 352.57,-334.12 352.57,-334.12 352.57,-328.12 358.57,-322.12 364.57,-322.12"/>
<text text-anchor="middle" x="379.57" y="-336.42" font-family="Arial" font-size="14.00" fill="#000000">R 30</text>
</g>
<!-- board.cache_hierarchy.ruby_system.network.l1_switch_14&#45;&#45;board.cache_hierarchy.ruby_system.network.l2_switch_14 -->
<g id="edge29" class="edge">
<title>board.cache_hierarchy.ruby_system.network.l1_switch_14&#45;&#45;board.cache_hierarchy.ruby_system.network.l2_switch_14</title>
<path fill="none" stroke="#042d50" d="M451.76,-373.76C440.7,-368.61 427.76,-362.57 415.9,-357.05"/>
<polygon fill="#042d50" stroke="#042d50" points="417.23,-353.8 406.69,-352.75 414.27,-360.15 417.23,-353.8"/>
</g>
<!-- board.cache_hierarchy.ruby_system.network.l2_switch_14&#45;&#45;board.cache_hierarchy.ruby_system.network.xbar -->
<g id="edge30" class="edge">
<title>board.cache_hierarchy.ruby_system.network.l2_switch_14&#45;&#45;board.cache_hierarchy.ruby_system.network.xbar</title>
<path fill="none" stroke="#042d50" d="M363.64,-322.03C360.88,-318.9 357.96,-315.59 355.06,-312.3"/>
<polygon fill="#042d50" stroke="#042d50" points="357.66,-309.95 348.42,-304.76 352.41,-314.58 357.66,-309.95"/>
</g>
<!-- board.cache_hierarchy.ruby_system.network.l1_switch_15 -->
<g id="node32" class="node">
<title>board.cache_hierarchy.ruby_system.network.l1_switch_15</title>
<path fill="#cce6fc" stroke="#000000" d="M505.33,-249.52C505.33,-249.52 535.33,-249.52 535.33,-249.52 541.33,-249.52 547.33,-255.52 547.33,-261.52 547.33,-261.52 547.33,-273.52 547.33,-273.52 547.33,-279.52 541.33,-285.52 535.33,-285.52 535.33,-285.52 505.33,-285.52 505.33,-285.52 499.33,-285.52 493.33,-279.52 493.33,-273.52 493.33,-273.52 493.33,-261.52 493.33,-261.52 493.33,-255.52 499.33,-249.52 505.33,-249.52"/>
<text text-anchor="middle" x="520.33" y="-263.82" font-family="Arial" font-size="14.00" fill="#000000">R 31</text>
</g>
<!-- board.cache_hierarchy.ruby_system.network.l2_switch_15 -->
<g id="node33" class="node">
<title>board.cache_hierarchy.ruby_system.network.l2_switch_15</title>
<path fill="#cce6fc" stroke="#000000" d="M400.11,-251.29C400.11,-251.29 430.11,-251.29 430.11,-251.29 436.11,-251.29 442.11,-257.29 442.11,-263.29 442.11,-263.29 442.11,-275.29 442.11,-275.29 442.11,-281.29 436.11,-287.29 430.11,-287.29 430.11,-287.29 400.11,-287.29 400.11,-287.29 394.11,-287.29 388.11,-281.29 388.11,-275.29 388.11,-275.29 388.11,-263.29 388.11,-263.29 388.11,-257.29 394.11,-251.29 400.11,-251.29"/>
<text text-anchor="middle" x="415.11" y="-265.59" font-family="Arial" font-size="14.00" fill="#000000">R 32</text>
</g>
<!-- board.cache_hierarchy.ruby_system.network.l1_switch_15&#45;&#45;board.cache_hierarchy.ruby_system.network.l2_switch_15 -->
<g id="edge31" class="edge">
<title>board.cache_hierarchy.ruby_system.network.l1_switch_15&#45;&#45;board.cache_hierarchy.ruby_system.network.l2_switch_15</title>
<path fill="none" stroke="#042d50" d="M493.23,-267.97C480.83,-268.18 465.94,-268.43 452.5,-268.66"/>
<polygon fill="#042d50" stroke="#042d50" points="452.05,-265.17 442.11,-268.83 452.17,-272.16 452.05,-265.17"/>
</g>
<!-- board.cache_hierarchy.ruby_system.network.l2_switch_15&#45;&#45;board.cache_hierarchy.ruby_system.network.xbar -->
<g id="edge32" class="edge">
<title>board.cache_hierarchy.ruby_system.network.l2_switch_15&#45;&#45;board.cache_hierarchy.ruby_system.network.xbar</title>
<path fill="none" stroke="#042d50" d="M388.06,-274.99C382.21,-276.22 375.93,-277.54 369.77,-278.84"/>
<polygon fill="#042d50" stroke="#042d50" points="368.67,-275.49 359.61,-280.98 370.12,-282.34 368.67,-275.49"/>
</g>
<!-- board.cache_hierarchy.ruby_system.l1_controllers01 -->
<g id="node34" class="node">
<title>board.cache_hierarchy.ruby_system.l1_controllers01</title>
<path fill="#e5bcd0" stroke="#000000" d="M176.72,-15.44C176.72,-15.44 264.72,-15.44 264.72,-15.44 270.72,-15.44 276.72,-21.44 276.72,-27.44 276.72,-27.44 276.72,-39.44 276.72,-39.44 276.72,-45.44 270.72,-51.44 264.72,-51.44 264.72,-51.44 176.72,-51.44 176.72,-51.44 170.72,-51.44 164.72,-45.44 164.72,-39.44 164.72,-39.44 164.72,-27.44 164.72,-27.44 164.72,-21.44 170.72,-15.44 176.72,-15.44"/>
<text text-anchor="middle" x="220.72" y="-29.74" font-family="Arial" font-size="14.00" fill="#000000">l1_controllers01</text>
</g>
<!-- board.cache_hierarchy.ruby_system.l1_controllers01&#45;&#45;board.cache_hierarchy.ruby_system.network.l1_switch_0 -->
<g id="edge33" class="edge">
<title>board.cache_hierarchy.ruby_system.l1_controllers01&#45;&#45;board.cache_hierarchy.ruby_system.network.l1_switch_0</title>
<path fill="none" stroke="#381526" d="M238.85,-60.02C244.39,-68.13 250.47,-77.05 255.99,-85.15"/>
<polygon fill="#381526" stroke="#381526" points="241.61,-57.85 233.08,-51.56 235.82,-61.79 241.61,-57.85"/>
<polygon fill="#381526" stroke="#381526" points="253.19,-87.25 261.72,-93.54 258.98,-83.31 253.19,-87.25"/>
</g>
<!-- board.cache_hierarchy.ruby_system.l2_controllers00 -->
<g id="node35" class="node">
<title>board.cache_hierarchy.ruby_system.l2_controllers00</title>
<path fill="#e5bcd0" stroke="#000000" d="M304.01,-98.4C304.01,-98.4 392.01,-98.4 392.01,-98.4 398.01,-98.4 404.01,-104.4 404.01,-110.4 404.01,-110.4 404.01,-122.4 404.01,-122.4 404.01,-128.4 398.01,-134.4 392.01,-134.4 392.01,-134.4 304.01,-134.4 304.01,-134.4 298.01,-134.4 292.01,-128.4 292.01,-122.4 292.01,-122.4 292.01,-110.4 292.01,-110.4 292.01,-104.4 298.01,-98.4 304.01,-98.4"/>
<text text-anchor="middle" x="348.01" y="-112.7" font-family="Arial" font-size="14.00" fill="#000000">l2_controllers00</text>
</g>
<!-- board.cache_hierarchy.ruby_system.l2_controllers00&#45;&#45;board.cache_hierarchy.ruby_system.network.l2_switch_0 -->
<g id="edge34" class="edge">
<title>board.cache_hierarchy.ruby_system.l2_controllers00&#45;&#45;board.cache_hierarchy.ruby_system.network.l2_switch_0</title>
<path fill="none" stroke="#381526" d="M338.47,-144.12C334.93,-154.42 330.9,-166.12 327.35,-176.44"/>
<polygon fill="#381526" stroke="#381526" points="341.79,-145.24 341.74,-134.64 335.17,-142.96 341.79,-145.24"/>
<polygon fill="#381526" stroke="#381526" points="323.93,-175.62 323.98,-186.22 330.55,-177.9 323.93,-175.62"/>
</g>
<!-- board.cache_hierarchy.ruby_system.l1_controllers02 -->
<g id="node36" class="node">
<title>board.cache_hierarchy.ruby_system.l1_controllers02</title>
<path fill="#e5bcd0" stroke="#000000" d="M19.6,-193.09C19.6,-193.09 107.6,-193.09 107.6,-193.09 113.6,-193.09 119.6,-199.09 119.6,-205.09 119.6,-205.09 119.6,-217.09 119.6,-217.09 119.6,-223.09 113.6,-229.09 107.6,-229.09 107.6,-229.09 19.6,-229.09 19.6,-229.09 13.6,-229.09 7.6,-223.09 7.6,-217.09 7.6,-217.09 7.6,-205.09 7.6,-205.09 7.6,-199.09 13.6,-193.09 19.6,-193.09"/>
<text text-anchor="middle" x="63.6" y="-207.39" font-family="Arial" font-size="14.00" fill="#000000">l1_controllers02</text>
</g>
<!-- board.cache_hierarchy.ruby_system.l1_controllers02&#45;&#45;board.cache_hierarchy.ruby_system.network.l1_switch_1 -->
<g id="edge35" class="edge">
<title>board.cache_hierarchy.ruby_system.l1_controllers02&#45;&#45;board.cache_hierarchy.ruby_system.network.l1_switch_1</title>
<path fill="none" stroke="#381526" d="M124.62,-225.03C124.67,-225.04 124.73,-225.06 124.78,-225.07"/>
<polygon fill="#381526" stroke="#381526" points="130.21,-222.72 119.68,-223.9 128.65,-229.54 130.21,-222.72"/>
<polygon fill="#381526" stroke="#381526" points="114.41,-226.29 124.94,-225.11 115.98,-219.46 114.41,-226.29"/>
</g>
<!-- board.cache_hierarchy.ruby_system.l2_controllers01 -->
<g id="node37" class="node">
<title>board.cache_hierarchy.ruby_system.l2_controllers01</title>
<path fill="#e5bcd0" stroke="#000000" d="M120.43,-261.19C120.43,-261.19 208.43,-261.19 208.43,-261.19 214.43,-261.19 220.43,-267.19 220.43,-273.19 220.43,-273.19 220.43,-285.19 220.43,-285.19 220.43,-291.19 214.43,-297.19 208.43,-297.19 208.43,-297.19 120.43,-297.19 120.43,-297.19 114.43,-297.19 108.43,-291.19 108.43,-285.19 108.43,-285.19 108.43,-273.19 108.43,-273.19 108.43,-267.19 114.43,-261.19 120.43,-261.19"/>
<text text-anchor="middle" x="164.43" y="-275.49" font-family="Arial" font-size="14.00" fill="#000000">l2_controllers01</text>
</g>
<!-- board.cache_hierarchy.ruby_system.l2_controllers01&#45;&#45;board.cache_hierarchy.ruby_system.network.l2_switch_1 -->
<g id="edge36" class="edge">
<title>board.cache_hierarchy.ruby_system.l2_controllers01&#45;&#45;board.cache_hierarchy.ruby_system.network.l2_switch_1</title>
<path fill="none" stroke="#381526" d="M223.33,-272.1C223.39,-272.09 223.46,-272.09 223.52,-272.08"/>
<polygon fill="#381526" stroke="#381526" points="230.16,-267.75 220.65,-272.43 230.99,-274.7 230.16,-267.75"/>
<polygon fill="#381526" stroke="#381526" points="214.2,-276.73 223.71,-272.06 213.36,-269.78 214.2,-276.73"/>
</g>
<!-- board.cache_hierarchy.ruby_system.l1_controllers03 -->
<g id="node38" class="node">
<title>board.cache_hierarchy.ruby_system.l1_controllers03</title>
<path fill="#e5bcd0" stroke="#000000" d="M60.59,-427.91C60.59,-427.91 148.59,-427.91 148.59,-427.91 154.59,-427.91 160.59,-433.91 160.59,-439.91 160.59,-439.91 160.59,-451.91 160.59,-451.91 160.59,-457.91 154.59,-463.91 148.59,-463.91 148.59,-463.91 60.59,-463.91 60.59,-463.91 54.59,-463.91 48.59,-457.91 48.59,-451.91 48.59,-451.91 48.59,-439.91 48.59,-439.91 48.59,-433.91 54.59,-427.91 60.59,-427.91"/>
<text text-anchor="middle" x="104.59" y="-442.21" font-family="Arial" font-size="14.00" fill="#000000">l1_controllers03</text>
</g>
<!-- board.cache_hierarchy.ruby_system.l1_controllers03&#45;&#45;board.cache_hierarchy.ruby_system.network.l1_switch_2 -->
<g id="edge37" class="edge">
<title>board.cache_hierarchy.ruby_system.l1_controllers03&#45;&#45;board.cache_hierarchy.ruby_system.network.l1_switch_2</title>
<path fill="none" stroke="#381526" d="M144.63,-422.62C145.63,-422.04 146.64,-421.45 147.64,-420.87"/>
<polygon fill="#381526" stroke="#381526" points="142.75,-419.66 135.87,-427.72 146.27,-425.71 142.75,-419.66"/>
<polygon fill="#381526" stroke="#381526" points="149.64,-423.76 156.52,-415.7 146.12,-417.71 149.64,-423.76"/>
</g>
<!-- board.cache_hierarchy.ruby_system.l2_controllers02 -->
<g id="node39" class="node">
<title>board.cache_hierarchy.ruby_system.l2_controllers02</title>
<path fill="#e5bcd0" stroke="#000000" d="M126.27,-318.78C126.27,-318.78 214.27,-318.78 214.27,-318.78 220.27,-318.78 226.27,-324.78 226.27,-330.78 226.27,-330.78 226.27,-342.78 226.27,-342.78 226.27,-348.78 220.27,-354.78 214.27,-354.78 214.27,-354.78 126.27,-354.78 126.27,-354.78 120.27,-354.78 114.27,-348.78 114.27,-342.78 114.27,-342.78 114.27,-330.78 114.27,-330.78 114.27,-324.78 120.27,-318.78 126.27,-318.78"/>
<text text-anchor="middle" x="170.27" y="-333.08" font-family="Arial" font-size="14.00" fill="#000000">l2_controllers02</text>
</g>
<!-- board.cache_hierarchy.ruby_system.l2_controllers02&#45;&#45;board.cache_hierarchy.ruby_system.network.l2_switch_2 -->
<g id="edge38" class="edge">
<title>board.cache_hierarchy.ruby_system.l2_controllers02&#45;&#45;board.cache_hierarchy.ruby_system.network.l2_switch_2</title>
<path fill="none" stroke="#381526" d="M234.83,-331.67C234.87,-331.66 234.92,-331.66 234.96,-331.66"/>
<polygon fill="#381526" stroke="#381526" points="235.97,-328.07 226.28,-332.34 236.53,-335.04 235.97,-328.07"/>
<polygon fill="#381526" stroke="#381526" points="225.41,-335.93 235.1,-331.65 224.85,-328.95 225.41,-335.93"/>
</g>
<!-- board.cache_hierarchy.ruby_system.l1_controllers04 -->
<g id="node40" class="node">
<title>board.cache_hierarchy.ruby_system.l1_controllers04</title>
<path fill="#e5bcd0" stroke="#000000" d="M202.31,-5.13C202.31,-5.13 290.31,-5.13 290.31,-5.13 296.31,-5.13 302.31,-11.13 302.31,-17.13 302.31,-17.13 302.31,-29.13 302.31,-29.13 302.31,-35.13 296.31,-41.13 290.31,-41.13 290.31,-41.13 202.31,-41.13 202.31,-41.13 196.31,-41.13 190.31,-35.13 190.31,-29.13 190.31,-29.13 190.31,-17.13 190.31,-17.13 190.31,-11.13 196.31,-5.13 202.31,-5.13"/>
<text text-anchor="middle" x="246.31" y="-19.43" font-family="Arial" font-size="14.00" fill="#000000">l1_controllers04</text>
</g>
<!-- board.cache_hierarchy.ruby_system.l1_controllers04&#45;&#45;board.cache_hierarchy.ruby_system.network.l1_switch_3 -->
<g id="edge39" class="edge">
<title>board.cache_hierarchy.ruby_system.l1_controllers04&#45;&#45;board.cache_hierarchy.ruby_system.network.l1_switch_3</title>
<path fill="none" stroke="#381526" d="M249.24,-51.52C250.47,-63.44 251.9,-77.27 253.13,-89.21"/>
<polygon fill="#381526" stroke="#381526" points="252.7,-50.95 248.19,-41.37 245.74,-51.67 252.7,-50.95"/>
<polygon fill="#381526" stroke="#381526" points="249.69,-89.93 254.19,-99.52 256.65,-89.21 249.69,-89.93"/>
</g>
<!-- board.cache_hierarchy.ruby_system.l2_controllers03 -->
<g id="node41" class="node">
<title>board.cache_hierarchy.ruby_system.l2_controllers03</title>
<path fill="#e5bcd0" stroke="#000000" d="M175.29,-143.67C175.29,-143.67 263.29,-143.67 263.29,-143.67 269.29,-143.67 275.29,-149.67 275.29,-155.67 275.29,-155.67 275.29,-167.67 275.29,-167.67 275.29,-173.67 269.29,-179.67 263.29,-179.67 263.29,-179.67 175.29,-179.67 175.29,-179.67 169.29,-179.67 163.29,-173.67 163.29,-167.67 163.29,-167.67 163.29,-155.67 163.29,-155.67 163.29,-149.67 169.29,-143.67 175.29,-143.67"/>
<text text-anchor="middle" x="219.29" y="-157.97" font-family="Arial" font-size="14.00" fill="#000000">l2_controllers03</text>
</g>
<!-- board.cache_hierarchy.ruby_system.l2_controllers03&#45;&#45;board.cache_hierarchy.ruby_system.network.l2_switch_3 -->
<g id="edge40" class="edge">
<title>board.cache_hierarchy.ruby_system.l2_controllers03&#45;&#45;board.cache_hierarchy.ruby_system.network.l2_switch_3</title>
<path fill="none" stroke="#381526" d="M251.82,-186.2C253.72,-187.63 255.63,-189.07 257.52,-190.5"/>
<polygon fill="#381526" stroke="#381526" points="253.63,-183.18 243.54,-179.96 249.42,-188.77 253.63,-183.18"/>
<polygon fill="#381526" stroke="#381526" points="255.61,-193.44 265.7,-196.67 259.83,-187.85 255.61,-193.44"/>
</g>
<!-- board.cache_hierarchy.ruby_system.l1_controllers05 -->
<g id="node42" class="node">
<title>board.cache_hierarchy.ruby_system.l1_controllers05</title>
<path fill="#e5bcd0" stroke="#000000" d="M70.6,-93.76C70.6,-93.76 158.6,-93.76 158.6,-93.76 164.6,-93.76 170.6,-99.76 170.6,-105.76 170.6,-105.76 170.6,-117.76 170.6,-117.76 170.6,-123.76 164.6,-129.76 158.6,-129.76 158.6,-129.76 70.6,-129.76 70.6,-129.76 64.6,-129.76 58.6,-123.76 58.6,-117.76 58.6,-117.76 58.6,-105.76 58.6,-105.76 58.6,-99.76 64.6,-93.76 70.6,-93.76"/>
<text text-anchor="middle" x="114.6" y="-108.06" font-family="Arial" font-size="14.00" fill="#000000">l1_controllers05</text>
</g>
<!-- board.cache_hierarchy.ruby_system.l1_controllers05&#45;&#45;board.cache_hierarchy.ruby_system.network.l1_switch_4 -->
<g id="edge41" class="edge">
<title>board.cache_hierarchy.ruby_system.l1_controllers05&#45;&#45;board.cache_hierarchy.ruby_system.network.l1_switch_4</title>
<path fill="none" stroke="#381526" d="M147.51,-135.8C149.97,-137.6 152.45,-139.41 154.91,-141.2"/>
<polygon fill="#381526" stroke="#381526" points="149.56,-132.96 139.42,-129.89 145.43,-138.61 149.56,-132.96"/>
<polygon fill="#381526" stroke="#381526" points="152.98,-144.13 163.12,-147.2 157.11,-138.47 152.98,-144.13"/>
</g>
<!-- board.cache_hierarchy.ruby_system.l2_controllers04 -->
<g id="node43" class="node">
<title>board.cache_hierarchy.ruby_system.l2_controllers04</title>
<path fill="#e5bcd0" stroke="#000000" d="M135.59,-197.04C135.59,-197.04 223.59,-197.04 223.59,-197.04 229.59,-197.04 235.59,-203.04 235.59,-209.04 235.59,-209.04 235.59,-221.04 235.59,-221.04 235.59,-227.04 229.59,-233.04 223.59,-233.04 223.59,-233.04 135.59,-233.04 135.59,-233.04 129.59,-233.04 123.59,-227.04 123.59,-221.04 123.59,-221.04 123.59,-209.04 123.59,-209.04 123.59,-203.04 129.59,-197.04 135.59,-197.04"/>
<text text-anchor="middle" x="179.59" y="-211.34" font-family="Arial" font-size="14.00" fill="#000000">l2_controllers04</text>
</g>
<!-- board.cache_hierarchy.ruby_system.l2_controllers04&#45;&#45;board.cache_hierarchy.ruby_system.network.l2_switch_4 -->
<g id="edge42" class="edge">
<title>board.cache_hierarchy.ruby_system.l2_controllers04&#45;&#45;board.cache_hierarchy.ruby_system.network.l2_switch_4</title>
<path fill="none" stroke="#381526" d="M236.18,-230.25C236.21,-230.26 236.24,-230.27 236.26,-230.28"/>
<polygon fill="#381526" stroke="#381526" points="246.57,-229.43 236,-230.21 244.75,-236.19 246.57,-229.43"/>
<polygon fill="#381526" stroke="#381526" points="225.78,-231.08 236.35,-230.3 227.61,-224.32 225.78,-231.08"/>
</g>
<!-- board.cache_hierarchy.ruby_system.l1_controllers06 -->
<g id="node44" class="node">
<title>board.cache_hierarchy.ruby_system.l1_controllers06</title>
<path fill="#e5bcd0" stroke="#000000" d="M557.69,-338.78C557.69,-338.78 645.69,-338.78 645.69,-338.78 651.69,-338.78 657.69,-344.78 657.69,-350.78 657.69,-350.78 657.69,-362.78 657.69,-362.78 657.69,-368.78 651.69,-374.78 645.69,-374.78 645.69,-374.78 557.69,-374.78 557.69,-374.78 551.69,-374.78 545.69,-368.78 545.69,-362.78 545.69,-362.78 545.69,-350.78 545.69,-350.78 545.69,-344.78 551.69,-338.78 557.69,-338.78"/>
<text text-anchor="middle" x="601.69" y="-353.08" font-family="Arial" font-size="14.00" fill="#000000">l1_controllers06</text>
</g>
<!-- board.cache_hierarchy.ruby_system.l1_controllers06&#45;&#45;board.cache_hierarchy.ruby_system.network.l1_switch_5 -->
<g id="edge43" class="edge">
<title>board.cache_hierarchy.ruby_system.l1_controllers06&#45;&#45;board.cache_hierarchy.ruby_system.network.l1_switch_5</title>
<path fill="none" stroke="#381526" d="M537.72,-346.38C537.67,-346.37 537.63,-346.37 537.59,-346.36"/>
<polygon fill="#381526" stroke="#381526" points="535.24,-349.52 545.67,-347.67 536.37,-342.61 535.24,-349.52"/>
<polygon fill="#381526" stroke="#381526" points="547.9,-344.5 537.47,-346.34 546.77,-351.41 547.9,-344.5"/>
</g>
<!-- board.cache_hierarchy.ruby_system.l2_controllers05 -->
<g id="node45" class="node">
<title>board.cache_hierarchy.ruby_system.l2_controllers05</title>
<path fill="#e5bcd0" stroke="#000000" d="M455.98,-280.61C455.98,-280.61 543.98,-280.61 543.98,-280.61 549.98,-280.61 555.98,-286.61 555.98,-292.61 555.98,-292.61 555.98,-304.61 555.98,-304.61 555.98,-310.61 549.98,-316.61 543.98,-316.61 543.98,-316.61 455.98,-316.61 455.98,-316.61 449.98,-316.61 443.98,-310.61 443.98,-304.61 443.98,-304.61 443.98,-292.61 443.98,-292.61 443.98,-286.61 449.98,-280.61 455.98,-280.61"/>
<text text-anchor="middle" x="499.98" y="-294.91" font-family="Arial" font-size="14.00" fill="#000000">l2_controllers05</text>
</g>
<!-- board.cache_hierarchy.ruby_system.l2_controllers05&#45;&#45;board.cache_hierarchy.ruby_system.network.l2_switch_5 -->
<g id="edge44" class="edge">
<title>board.cache_hierarchy.ruby_system.l2_controllers05&#45;&#45;board.cache_hierarchy.ruby_system.network.l2_switch_5</title>
<path fill="none" stroke="#381526" d="M441.28,-302.6C441.22,-302.61 441.15,-302.61 441.09,-302.62"/>
<polygon fill="#381526" stroke="#381526" points="434.21,-306.59 443.95,-302.42 433.74,-299.61 434.21,-306.59"/>
<polygon fill="#381526" stroke="#381526" points="450.64,-298.45 440.9,-302.63 451.12,-305.44 450.64,-298.45"/>
</g>
<!-- board.cache_hierarchy.ruby_system.l1_controllers07 -->
<g id="node46" class="node">
<title>board.cache_hierarchy.ruby_system.l1_controllers07</title>
<path fill="#e5bcd0" stroke="#000000" d="M364.77,-0.5C364.77,-0.5 452.77,-0.5 452.77,-0.5 458.77,-0.5 464.77,-6.5 464.77,-12.5 464.77,-12.5 464.77,-24.5 464.77,-24.5 464.77,-30.5 458.77,-36.5 452.77,-36.5 452.77,-36.5 364.77,-36.5 364.77,-36.5 358.77,-36.5 352.77,-30.5 352.77,-24.5 352.77,-24.5 352.77,-12.5 352.77,-12.5 352.77,-6.5 358.77,-0.5 364.77,-0.5"/>
<text text-anchor="middle" x="408.77" y="-14.8" font-family="Arial" font-size="14.00" fill="#000000">l1_controllers07</text>
</g>
<!-- board.cache_hierarchy.ruby_system.l1_controllers07&#45;&#45;board.cache_hierarchy.ruby_system.network.l1_switch_6 -->
<g id="edge45" class="edge">
<title>board.cache_hierarchy.ruby_system.l1_controllers07&#45;&#45;board.cache_hierarchy.ruby_system.network.l1_switch_6</title>
<path fill="none" stroke="#381526" d="M402.65,-46.69C400.29,-57.57 397.59,-69.99 395.23,-80.87"/>
<polygon fill="#381526" stroke="#381526" points="406.09,-47.33 404.79,-36.82 399.25,-45.85 406.09,-47.33"/>
<polygon fill="#381526" stroke="#381526" points="391.8,-80.2 393.1,-90.72 398.64,-81.69 391.8,-80.2"/>
</g>
<!-- board.cache_hierarchy.ruby_system.l2_controllers06 -->
<g id="node47" class="node">
<title>board.cache_hierarchy.ruby_system.l2_controllers06</title>
<path fill="#e5bcd0" stroke="#000000" d="M400.54,-139.17C400.54,-139.17 488.54,-139.17 488.54,-139.17 494.54,-139.17 500.54,-145.17 500.54,-151.17 500.54,-151.17 500.54,-163.17 500.54,-163.17 500.54,-169.17 494.54,-175.17 488.54,-175.17 488.54,-175.17 400.54,-175.17 400.54,-175.17 394.54,-175.17 388.54,-169.17 388.54,-163.17 388.54,-163.17 388.54,-151.17 388.54,-151.17 388.54,-145.17 394.54,-139.17 400.54,-139.17"/>
<text text-anchor="middle" x="444.54" y="-153.47" font-family="Arial" font-size="14.00" fill="#000000">l2_controllers06</text>
</g>
<!-- board.cache_hierarchy.ruby_system.l2_controllers06&#45;&#45;board.cache_hierarchy.ruby_system.network.l2_switch_6 -->
<g id="edge46" class="edge">
<title>board.cache_hierarchy.ruby_system.l2_controllers06&#45;&#45;board.cache_hierarchy.ruby_system.network.l2_switch_6</title>
<path fill="none" stroke="#381526" d="M413.84,-181.95C410.83,-184.38 407.77,-186.85 404.76,-189.28"/>
<polygon fill="#381526" stroke="#381526" points="416.39,-184.39 421.97,-175.38 411.99,-178.94 416.39,-184.39"/>
<polygon fill="#381526" stroke="#381526" points="402.55,-186.56 396.96,-195.57 406.94,-192.01 402.55,-186.56"/>
</g>
<!-- board.cache_hierarchy.ruby_system.l1_controllers08 -->
<g id="node48" class="node">
<title>board.cache_hierarchy.ruby_system.l1_controllers08</title>
<path fill="#e5bcd0" stroke="#000000" d="M519.25,-109.72C519.25,-109.72 607.25,-109.72 607.25,-109.72 613.25,-109.72 619.25,-115.72 619.25,-121.72 619.25,-121.72 619.25,-133.72 619.25,-133.72 619.25,-139.72 613.25,-145.72 607.25,-145.72 607.25,-145.72 519.25,-145.72 519.25,-145.72 513.25,-145.72 507.25,-139.72 507.25,-133.72 507.25,-133.72 507.25,-121.72 507.25,-121.72 507.25,-115.72 513.25,-109.72 519.25,-109.72"/>
<text text-anchor="middle" x="563.25" y="-124.02" font-family="Arial" font-size="14.00" fill="#000000">l1_controllers08</text>
</g>
<!-- board.cache_hierarchy.ruby_system.l1_controllers08&#45;&#45;board.cache_hierarchy.ruby_system.network.l1_switch_7 -->
<g id="edge47" class="edge">
<title>board.cache_hierarchy.ruby_system.l1_controllers08&#45;&#45;board.cache_hierarchy.ruby_system.network.l1_switch_7</title>
<path fill="none" stroke="#381526" d="M523.42,-151.01C522.42,-151.6 521.41,-152.18 520.42,-152.76"/>
<polygon fill="#381526" stroke="#381526" points="525.27,-153.98 532.13,-145.91 521.73,-147.94 525.27,-153.98"/>
<polygon fill="#381526" stroke="#381526" points="518.45,-149.86 511.59,-157.93 521.98,-155.9 518.45,-149.86"/>
</g>
<!-- board.cache_hierarchy.ruby_system.l2_controllers07 -->
<g id="node49" class="node">
<title>board.cache_hierarchy.ruby_system.l2_controllers07</title>
<path fill="#e5bcd0" stroke="#000000" d="M452.61,-221.08C452.61,-221.08 540.61,-221.08 540.61,-221.08 546.61,-221.08 552.61,-227.08 552.61,-233.08 552.61,-233.08 552.61,-245.08 552.61,-245.08 552.61,-251.08 546.61,-257.08 540.61,-257.08 540.61,-257.08 452.61,-257.08 452.61,-257.08 446.61,-257.08 440.61,-251.08 440.61,-245.08 440.61,-245.08 440.61,-233.08 440.61,-233.08 440.61,-227.08 446.61,-221.08 452.61,-221.08"/>
<text text-anchor="middle" x="496.61" y="-235.38" font-family="Arial" font-size="14.00" fill="#000000">l2_controllers07</text>
</g>
<!-- board.cache_hierarchy.ruby_system.l2_controllers07&#45;&#45;board.cache_hierarchy.ruby_system.network.l2_switch_7 -->
<g id="edge48" class="edge">
<title>board.cache_hierarchy.ruby_system.l2_controllers07&#45;&#45;board.cache_hierarchy.ruby_system.network.l2_switch_7</title>
<path fill="none" stroke="#381526" d="M432.36,-241.42C432.32,-241.43 432.28,-241.43 432.24,-241.43"/>
<polygon fill="#381526" stroke="#381526" points="430.49,-244.99 440.36,-241.13 430.24,-238 430.49,-244.99"/>
<polygon fill="#381526" stroke="#381526" points="441.98,-237.56 432.12,-241.43 442.24,-244.56 441.98,-237.56"/>
</g>
<!-- board.cache_hierarchy.ruby_system.l1_controllers09 -->
<g id="node50" class="node">
<title>board.cache_hierarchy.ruby_system.l1_controllers09</title>
<path fill="#e5bcd0" stroke="#000000" d="M295.52,-542.95C295.52,-542.95 383.52,-542.95 383.52,-542.95 389.52,-542.95 395.52,-548.95 395.52,-554.95 395.52,-554.95 395.52,-566.95 395.52,-566.95 395.52,-572.95 389.52,-578.95 383.52,-578.95 383.52,-578.95 295.52,-578.95 295.52,-578.95 289.52,-578.95 283.52,-572.95 283.52,-566.95 283.52,-566.95 283.52,-554.95 283.52,-554.95 283.52,-548.95 289.52,-542.95 295.52,-542.95"/>
<text text-anchor="middle" x="339.52" y="-557.25" font-family="Arial" font-size="14.00" fill="#000000">l1_controllers09</text>
</g>
<!-- board.cache_hierarchy.ruby_system.l1_controllers09&#45;&#45;board.cache_hierarchy.ruby_system.network.l1_switch_8 -->
<g id="edge49" class="edge">
<title>board.cache_hierarchy.ruby_system.l1_controllers09&#45;&#45;board.cache_hierarchy.ruby_system.network.l1_switch_8</title>
<path fill="none" stroke="#381526" d="M332.94,-532.82C330.25,-521.32 327.14,-508.04 324.45,-496.53"/>
<polygon fill="#381526" stroke="#381526" points="329.55,-533.7 335.24,-542.64 336.37,-532.11 329.55,-533.7"/>
<polygon fill="#381526" stroke="#381526" points="327.8,-495.49 322.12,-486.55 320.99,-497.09 327.8,-495.49"/>
</g>
<!-- board.cache_hierarchy.ruby_system.l2_controllers08 -->
<g id="node51" class="node">
<title>board.cache_hierarchy.ruby_system.l2_controllers08</title>
<path fill="#e5bcd0" stroke="#000000" d="M186.71,-401.85C186.71,-401.85 274.71,-401.85 274.71,-401.85 280.71,-401.85 286.71,-407.85 286.71,-413.85 286.71,-413.85 286.71,-425.85 286.71,-425.85 286.71,-431.85 280.71,-437.85 274.71,-437.85 274.71,-437.85 186.71,-437.85 186.71,-437.85 180.71,-437.85 174.71,-431.85 174.71,-425.85 174.71,-425.85 174.71,-413.85 174.71,-413.85 174.71,-407.85 180.71,-401.85 186.71,-401.85"/>
<text text-anchor="middle" x="230.71" y="-416.15" font-family="Arial" font-size="14.00" fill="#000000">l2_controllers08</text>
</g>
<!-- board.cache_hierarchy.ruby_system.l2_controllers08&#45;&#45;board.cache_hierarchy.ruby_system.network.l2_switch_8 -->
<g id="edge50" class="edge">
<title>board.cache_hierarchy.ruby_system.l2_controllers08&#45;&#45;board.cache_hierarchy.ruby_system.network.l2_switch_8</title>
<path fill="none" stroke="#381526" d="M258.1,-394.93C262.16,-391.23 266.34,-387.43 270.4,-383.73"/>
<polygon fill="#381526" stroke="#381526" points="255.54,-392.52 250.5,-401.84 260.25,-397.7 255.54,-392.52"/>
<polygon fill="#381526" stroke="#381526" points="272.95,-386.14 278,-376.82 268.24,-380.96 272.95,-386.14"/>
</g>
<!-- board.cache_hierarchy.ruby_system.l1_controllers10 -->
<g id="node52" class="node">
<title>board.cache_hierarchy.ruby_system.l1_controllers10</title>
<path fill="#e5bcd0" stroke="#000000" d="M476.55,-474.46C476.55,-474.46 564.55,-474.46 564.55,-474.46 570.55,-474.46 576.55,-480.46 576.55,-486.46 576.55,-486.46 576.55,-498.46 576.55,-498.46 576.55,-504.46 570.55,-510.46 564.55,-510.46 564.55,-510.46 476.55,-510.46 476.55,-510.46 470.55,-510.46 464.55,-504.46 464.55,-498.46 464.55,-498.46 464.55,-486.46 464.55,-486.46 464.55,-480.46 470.55,-474.46 476.55,-474.46"/>
<text text-anchor="middle" x="520.55" y="-488.76" font-family="Arial" font-size="14.00" fill="#000000">l1_controllers10</text>
</g>
<!-- board.cache_hierarchy.ruby_system.l1_controllers10&#45;&#45;board.cache_hierarchy.ruby_system.network.l1_switch_9 -->
<g id="edge51" class="edge">
<title>board.cache_hierarchy.ruby_system.l1_controllers10&#45;&#45;board.cache_hierarchy.ruby_system.network.l1_switch_9</title>
<path fill="none" stroke="#381526" d="M504,-465.62C498.81,-457.2 493.08,-447.91 487.89,-439.49"/>
<polygon fill="#381526" stroke="#381526" points="501.18,-467.71 509.4,-474.38 507.13,-464.03 501.18,-467.71"/>
<polygon fill="#381526" stroke="#381526" points="490.76,-437.47 482.53,-430.8 484.8,-441.14 490.76,-437.47"/>
</g>
<!-- board.cache_hierarchy.ruby_system.l2_controllers09 -->
<g id="node53" class="node">
<title>board.cache_hierarchy.ruby_system.l2_controllers09</title>
<path fill="#e5bcd0" stroke="#000000" d="M386.11,-411.23C386.11,-411.23 474.11,-411.23 474.11,-411.23 480.11,-411.23 486.11,-417.23 486.11,-423.23 486.11,-423.23 486.11,-435.23 486.11,-435.23 486.11,-441.23 480.11,-447.23 474.11,-447.23 474.11,-447.23 386.11,-447.23 386.11,-447.23 380.11,-447.23 374.11,-441.23 374.11,-435.23 374.11,-435.23 374.11,-423.23 374.11,-423.23 374.11,-417.23 380.11,-411.23 386.11,-411.23"/>
<text text-anchor="middle" x="430.11" y="-425.53" font-family="Arial" font-size="14.00" fill="#000000">l2_controllers09</text>
</g>
<!-- board.cache_hierarchy.ruby_system.l2_controllers09&#45;&#45;board.cache_hierarchy.ruby_system.network.l2_switch_9 -->
<g id="edge52" class="edge">
<title>board.cache_hierarchy.ruby_system.l2_controllers09&#45;&#45;board.cache_hierarchy.ruby_system.network.l2_switch_9</title>
<path fill="none" stroke="#381526" d="M418.67,-401.65C414.88,-392.52 410.67,-382.36 406.88,-373.24"/>
<polygon fill="#381526" stroke="#381526" points="415.53,-403.22 422.6,-411.12 422,-400.54 415.53,-403.22"/>
<polygon fill="#381526" stroke="#381526" points="410.05,-371.73 402.99,-363.84 403.58,-374.41 410.05,-371.73"/>
</g>
<!-- board.cache_hierarchy.ruby_system.l1_controllers11 -->
<g id="node54" class="node">
<title>board.cache_hierarchy.ruby_system.l1_controllers11</title>
<path fill="#e5bcd0" stroke="#000000" d="M242,-539.28C242,-539.28 329,-539.28 329,-539.28 335,-539.28 341,-545.28 341,-551.28 341,-551.28 341,-563.28 341,-563.28 341,-569.28 335,-575.28 329,-575.28 329,-575.28 242,-575.28 242,-575.28 236,-575.28 230,-569.28 230,-563.28 230,-563.28 230,-551.28 230,-551.28 230,-545.28 236,-539.28 242,-539.28"/>
<text text-anchor="middle" x="285.5" y="-553.58" font-family="Arial" font-size="14.00" fill="#000000">l1_controllers11</text>
</g>
<!-- board.cache_hierarchy.ruby_system.l1_controllers11&#45;&#45;board.cache_hierarchy.ruby_system.network.l1_switch_10 -->
<g id="edge53" class="edge">
<title>board.cache_hierarchy.ruby_system.l1_controllers11&#45;&#45;board.cache_hierarchy.ruby_system.network.l1_switch_10</title>
<path fill="none" stroke="#381526" d="M288.85,-528.88C290.27,-516.83 291.92,-502.82 293.34,-490.81"/>
<polygon fill="#381526" stroke="#381526" points="285.34,-528.69 287.65,-539.04 292.3,-529.51 285.34,-528.69"/>
<polygon fill="#381526" stroke="#381526" points="296.81,-491.19 294.51,-480.85 289.86,-490.37 296.81,-491.19"/>
</g>
<!-- board.cache_hierarchy.ruby_system.l2_controllers10 -->
<g id="node55" class="node">
<title>board.cache_hierarchy.ruby_system.l2_controllers10</title>
<path fill="#e5bcd0" stroke="#000000" d="M356.34,-424.46C356.34,-424.46 444.34,-424.46 444.34,-424.46 450.34,-424.46 456.34,-430.46 456.34,-436.46 456.34,-436.46 456.34,-448.46 456.34,-448.46 456.34,-454.46 450.34,-460.46 444.34,-460.46 444.34,-460.46 356.34,-460.46 356.34,-460.46 350.34,-460.46 344.34,-454.46 344.34,-448.46 344.34,-448.46 344.34,-436.46 344.34,-436.46 344.34,-430.46 350.34,-424.46 356.34,-424.46"/>
<text text-anchor="middle" x="400.34" y="-438.76" font-family="Arial" font-size="14.00" fill="#000000">l2_controllers10</text>
</g>
<!-- board.cache_hierarchy.ruby_system.l2_controllers10&#45;&#45;board.cache_hierarchy.ruby_system.network.l2_switch_10 -->
<g id="edge54" class="edge">
<title>board.cache_hierarchy.ruby_system.l2_controllers10&#45;&#45;board.cache_hierarchy.ruby_system.network.l2_switch_10</title>
<path fill="none" stroke="#381526" d="M380.5,-415.98C374.19,-407.56 367.22,-398.26 360.93,-389.86"/>
<polygon fill="#381526" stroke="#381526" points="377.85,-418.28 386.65,-424.18 383.45,-414.08 377.85,-418.28"/>
<polygon fill="#381526" stroke="#381526" points="363.71,-387.73 354.91,-381.83 358.11,-391.93 363.71,-387.73"/>
</g>
<!-- board.cache_hierarchy.ruby_system.l1_controllers12 -->
<g id="node56" class="node">
<title>board.cache_hierarchy.ruby_system.l1_controllers12</title>
<path fill="#e5bcd0" stroke="#000000" d="M428.38,-28.63C428.38,-28.63 516.38,-28.63 516.38,-28.63 522.38,-28.63 528.38,-34.63 528.38,-40.63 528.38,-40.63 528.38,-52.63 528.38,-52.63 528.38,-58.63 522.38,-64.63 516.38,-64.63 516.38,-64.63 428.38,-64.63 428.38,-64.63 422.38,-64.63 416.38,-58.63 416.38,-52.63 416.38,-52.63 416.38,-40.63 416.38,-40.63 416.38,-34.63 422.38,-28.63 428.38,-28.63"/>
<text text-anchor="middle" x="472.38" y="-42.93" font-family="Arial" font-size="14.00" fill="#000000">l1_controllers12</text>
</g>
<!-- board.cache_hierarchy.ruby_system.l1_controllers12&#45;&#45;board.cache_hierarchy.ruby_system.network.l1_switch_11 -->
<g id="edge55" class="edge">
<title>board.cache_hierarchy.ruby_system.l1_controllers12&#45;&#45;board.cache_hierarchy.ruby_system.network.l1_switch_11</title>
<path fill="none" stroke="#381526" d="M454.4,-73.59C449.27,-81.27 443.69,-89.63 438.57,-97.31"/>
<polygon fill="#381526" stroke="#381526" points="457.48,-75.26 460.12,-65 451.66,-71.38 457.48,-75.26"/>
<polygon fill="#381526" stroke="#381526" points="435.46,-95.66 432.82,-105.92 441.28,-99.54 435.46,-95.66"/>
</g>
<!-- board.cache_hierarchy.ruby_system.l2_controllers11 -->
<g id="node57" class="node">
<title>board.cache_hierarchy.ruby_system.l2_controllers11</title>
<path fill="#e5bcd0" stroke="#000000" d="M284.43,-97.73C284.43,-97.73 371.43,-97.73 371.43,-97.73 377.43,-97.73 383.43,-103.73 383.43,-109.73 383.43,-109.73 383.43,-121.73 383.43,-121.73 383.43,-127.73 377.43,-133.73 371.43,-133.73 371.43,-133.73 284.43,-133.73 284.43,-133.73 278.43,-133.73 272.43,-127.73 272.43,-121.73 272.43,-121.73 272.43,-109.73 272.43,-109.73 272.43,-103.73 278.43,-97.73 284.43,-97.73"/>
<text text-anchor="middle" x="327.93" y="-112.03" font-family="Arial" font-size="14.00" fill="#000000">l2_controllers11</text>
</g>
<!-- board.cache_hierarchy.ruby_system.l2_controllers11&#45;&#45;board.cache_hierarchy.ruby_system.network.l2_switch_11 -->
<g id="edge56" class="edge">
<title>board.cache_hierarchy.ruby_system.l2_controllers11&#45;&#45;board.cache_hierarchy.ruby_system.network.l2_switch_11</title>
<path fill="none" stroke="#381526" d="M335.83,-143.94C338.88,-154.83 342.36,-167.26 345.41,-178.14"/>
<polygon fill="#381526" stroke="#381526" points="339.13,-142.74 333.07,-134.06 332.39,-144.63 339.13,-142.74"/>
<polygon fill="#381526" stroke="#381526" points="342.11,-179.31 348.17,-187.99 348.85,-177.42 342.11,-179.31"/>
</g>
<!-- board.cache_hierarchy.ruby_system.l1_controllers13 -->
<g id="node58" class="node">
<title>board.cache_hierarchy.ruby_system.l1_controllers13</title>
<path fill="#e5bcd0" stroke="#000000" d="M149.48,-505.73C149.48,-505.73 237.48,-505.73 237.48,-505.73 243.48,-505.73 249.48,-511.73 249.48,-517.73 249.48,-517.73 249.48,-529.73 249.48,-529.73 249.48,-535.73 243.48,-541.73 237.48,-541.73 237.48,-541.73 149.48,-541.73 149.48,-541.73 143.48,-541.73 137.48,-535.73 137.48,-529.73 137.48,-529.73 137.48,-517.73 137.48,-517.73 137.48,-511.73 143.48,-505.73 149.48,-505.73"/>
<text text-anchor="middle" x="193.48" y="-520.03" font-family="Arial" font-size="14.00" fill="#000000">l1_controllers13</text>
</g>
<!-- board.cache_hierarchy.ruby_system.l1_controllers13&#45;&#45;board.cache_hierarchy.ruby_system.network.l1_switch_12 -->
<g id="edge57" class="edge">
<title>board.cache_hierarchy.ruby_system.l1_controllers13&#45;&#45;board.cache_hierarchy.ruby_system.network.l1_switch_12</title>
<path fill="none" stroke="#381526" d="M211.77,-496.88C216.98,-489.23 222.65,-480.89 227.85,-473.25"/>
<polygon fill="#381526" stroke="#381526" points="208.68,-495.19 205.94,-505.43 214.47,-499.13 208.68,-495.19"/>
<polygon fill="#381526" stroke="#381526" points="230.96,-474.91 233.69,-464.67 225.17,-470.97 230.96,-474.91"/>
</g>
<!-- board.cache_hierarchy.ruby_system.l2_controllers12 -->
<g id="node59" class="node">
<title>board.cache_hierarchy.ruby_system.l2_controllers12</title>
<path fill="#e5bcd0" stroke="#000000" d="M296.77,-433.25C296.77,-433.25 384.77,-433.25 384.77,-433.25 390.77,-433.25 396.77,-439.25 396.77,-445.25 396.77,-445.25 396.77,-457.25 396.77,-457.25 396.77,-463.25 390.77,-469.25 384.77,-469.25 384.77,-469.25 296.77,-469.25 296.77,-469.25 290.77,-469.25 284.77,-463.25 284.77,-457.25 284.77,-457.25 284.77,-445.25 284.77,-445.25 284.77,-439.25 290.77,-433.25 296.77,-433.25"/>
<text text-anchor="middle" x="340.77" y="-447.55" font-family="Arial" font-size="14.00" fill="#000000">l2_controllers12</text>
</g>
<!-- board.cache_hierarchy.ruby_system.l2_controllers12&#45;&#45;board.cache_hierarchy.ruby_system.network.l2_switch_12 -->
<g id="edge58" class="edge">
<title>board.cache_hierarchy.ruby_system.l2_controllers12&#45;&#45;board.cache_hierarchy.ruby_system.network.l2_switch_12</title>
<path fill="none" stroke="#381526" d="M332.08,-423.27C328.61,-412.08 324.61,-399.22 321.14,-388.05"/>
<polygon fill="#381526" stroke="#381526" points="328.75,-424.33 335.05,-432.84 335.43,-422.25 328.75,-424.33"/>
<polygon fill="#381526" stroke="#381526" points="324.44,-386.87 318.13,-378.36 317.76,-388.95 324.44,-386.87"/>
</g>
<!-- board.cache_hierarchy.ruby_system.l1_controllers14 -->
<g id="node60" class="node">
<title>board.cache_hierarchy.ruby_system.l1_controllers14</title>
<path fill="#e5bcd0" stroke="#000000" d="M12,-305.26C12,-305.26 100,-305.26 100,-305.26 106,-305.26 112,-311.26 112,-317.26 112,-317.26 112,-329.26 112,-329.26 112,-335.26 106,-341.26 100,-341.26 100,-341.26 12,-341.26 12,-341.26 6,-341.26 0,-335.26 0,-329.26 0,-329.26 0,-317.26 0,-317.26 0,-311.26 6,-305.26 12,-305.26"/>
<text text-anchor="middle" x="56" y="-319.56" font-family="Arial" font-size="14.00" fill="#000000">l1_controllers14</text>
</g>
<!-- board.cache_hierarchy.ruby_system.l1_controllers14&#45;&#45;board.cache_hierarchy.ruby_system.network.l1_switch_13 -->
<g id="edge59" class="edge">
<title>board.cache_hierarchy.ruby_system.l1_controllers14&#45;&#45;board.cache_hierarchy.ruby_system.network.l1_switch_13</title>
<path fill="none" stroke="#381526" d="M117.87,-312.01C117.93,-312 117.99,-311.99 118.05,-311.98"/>
<polygon fill="#381526" stroke="#381526" points="121.28,-307.84 112.06,-313.07 122.53,-314.72 121.28,-307.84"/>
<polygon fill="#381526" stroke="#381526" points="109.03,-317.18 118.24,-311.95 107.78,-310.29 109.03,-317.18"/>
</g>
<!-- board.cache_hierarchy.ruby_system.l2_controllers13 -->
<g id="node61" class="node">
<title>board.cache_hierarchy.ruby_system.l2_controllers13</title>
<path fill="#e5bcd0" stroke="#000000" d="M138.32,-346.66C138.32,-346.66 226.32,-346.66 226.32,-346.66 232.32,-346.66 238.32,-352.66 238.32,-358.66 238.32,-358.66 238.32,-370.66 238.32,-370.66 238.32,-376.66 232.32,-382.66 226.32,-382.66 226.32,-382.66 138.32,-382.66 138.32,-382.66 132.32,-382.66 126.32,-376.66 126.32,-370.66 126.32,-370.66 126.32,-358.66 126.32,-358.66 126.32,-352.66 132.32,-346.66 138.32,-346.66"/>
<text text-anchor="middle" x="182.32" y="-360.96" font-family="Arial" font-size="14.00" fill="#000000">l2_controllers13</text>
</g>
<!-- board.cache_hierarchy.ruby_system.l2_controllers13&#45;&#45;board.cache_hierarchy.ruby_system.network.l2_switch_13 -->
<g id="edge60" class="edge">
<title>board.cache_hierarchy.ruby_system.l2_controllers13&#45;&#45;board.cache_hierarchy.ruby_system.network.l2_switch_13</title>
<path fill="none" stroke="#381526" d="M210.84,-339.79C214.95,-336.21 219.17,-332.53 223.27,-328.96"/>
<polygon fill="#381526" stroke="#381526" points="208.39,-337.28 203.15,-346.49 212.99,-342.56 208.39,-337.28"/>
<polygon fill="#381526" stroke="#381526" points="225.71,-331.48 230.95,-322.27 221.11,-326.2 225.71,-331.48"/>
</g>
<!-- board.cache_hierarchy.ruby_system.l1_controllers15 -->
<g id="node62" class="node">
<title>board.cache_hierarchy.ruby_system.l1_controllers15</title>
<path fill="#e5bcd0" stroke="#000000" d="M511.52,-426.59C511.52,-426.59 599.52,-426.59 599.52,-426.59 605.52,-426.59 611.52,-432.59 611.52,-438.59 611.52,-438.59 611.52,-450.59 611.52,-450.59 611.52,-456.59 605.52,-462.59 599.52,-462.59 599.52,-462.59 511.52,-462.59 511.52,-462.59 505.52,-462.59 499.52,-456.59 499.52,-450.59 499.52,-450.59 499.52,-438.59 499.52,-438.59 499.52,-432.59 505.52,-426.59 511.52,-426.59"/>
<text text-anchor="middle" x="555.52" y="-440.89" font-family="Arial" font-size="14.00" fill="#000000">l1_controllers15</text>
</g>
<!-- board.cache_hierarchy.ruby_system.l1_controllers15&#45;&#45;board.cache_hierarchy.ruby_system.network.l1_switch_14 -->
<g id="edge61" class="edge">
<title>board.cache_hierarchy.ruby_system.l1_controllers15&#45;&#45;board.cache_hierarchy.ruby_system.network.l1_switch_14</title>
<path fill="none" stroke="#381526" d="M523.66,-420.4C519.39,-417.15 515,-413.82 510.73,-410.58"/>
<polygon fill="#381526" stroke="#381526" points="521.62,-423.24 531.7,-426.5 525.85,-417.66 521.62,-423.24"/>
<polygon fill="#381526" stroke="#381526" points="512.79,-407.75 502.71,-404.49 508.56,-413.32 512.79,-407.75"/>
</g>
<!-- board.cache_hierarchy.ruby_system.l2_controllers14 -->
<g id="node63" class="node">
<title>board.cache_hierarchy.ruby_system.l2_controllers14</title>
<path fill="#e5bcd0" stroke="#000000" d="M343.11,-420.14C343.11,-420.14 431.11,-420.14 431.11,-420.14 437.11,-420.14 443.11,-426.14 443.11,-432.14 443.11,-432.14 443.11,-444.14 443.11,-444.14 443.11,-450.14 437.11,-456.14 431.11,-456.14 431.11,-456.14 343.11,-456.14 343.11,-456.14 337.11,-456.14 331.11,-450.14 331.11,-444.14 331.11,-444.14 331.11,-432.14 331.11,-432.14 331.11,-426.14 337.11,-420.14 343.11,-420.14"/>
<text text-anchor="middle" x="387.11" y="-434.44" font-family="Arial" font-size="14.00" fill="#000000">l2_controllers14</text>
</g>
<!-- board.cache_hierarchy.ruby_system.l2_controllers14&#45;&#45;board.cache_hierarchy.ruby_system.network.l2_switch_14 -->
<g id="edge62" class="edge">
<title>board.cache_hierarchy.ruby_system.l2_controllers14&#45;&#45;board.cache_hierarchy.ruby_system.network.l2_switch_14</title>
<path fill="none" stroke="#381526" d="M384.91,-409.45C383.91,-396.49 382.74,-381.22 381.74,-368.32"/>
<polygon fill="#381526" stroke="#381526" points="381.44,-410 385.7,-419.7 388.42,-409.46 381.44,-410"/>
<polygon fill="#381526" stroke="#381526" points="385.22,-367.85 380.96,-358.14 378.24,-368.38 385.22,-367.85"/>
</g>
<!-- board.cache_hierarchy.ruby_system.l1_controllers16 -->
<g id="node64" class="node">
<title>board.cache_hierarchy.ruby_system.l1_controllers16</title>
<path fill="#e5bcd0" stroke="#000000" d="M565.47,-230.38C565.47,-230.38 653.47,-230.38 653.47,-230.38 659.47,-230.38 665.47,-236.38 665.47,-242.38 665.47,-242.38 665.47,-254.38 665.47,-254.38 665.47,-260.38 659.47,-266.38 653.47,-266.38 653.47,-266.38 565.47,-266.38 565.47,-266.38 559.47,-266.38 553.47,-260.38 553.47,-254.38 553.47,-254.38 553.47,-242.38 553.47,-242.38 553.47,-236.38 559.47,-230.38 565.47,-230.38"/>
<text text-anchor="middle" x="609.47" y="-244.68" font-family="Arial" font-size="14.00" fill="#000000">l1_controllers16</text>
</g>
<!-- board.cache_hierarchy.ruby_system.l1_controllers16&#45;&#45;board.cache_hierarchy.ruby_system.network.l1_switch_15 -->
<g id="edge63" class="edge">
<title>board.cache_hierarchy.ruby_system.l1_controllers16&#45;&#45;board.cache_hierarchy.ruby_system.network.l1_switch_15</title>
<path fill="none" stroke="#381526" d="M547.89,-261.6C547.83,-261.61 547.77,-261.62 547.71,-261.64"/>
<polygon fill="#381526" stroke="#381526" points="544.22,-265.97 553.27,-260.44 542.76,-259.12 544.22,-265.97"/>
<polygon fill="#381526" stroke="#381526" points="556.58,-256.15 547.54,-261.67 558.05,-262.99 556.58,-256.15"/>
</g>
<!-- board.cache_hierarchy.ruby_system.l2_controllers15 -->
<g id="node65" class="node">
<title>board.cache_hierarchy.ruby_system.l2_controllers15</title>
<path fill="#e5bcd0" stroke="#000000" d="M441.57,-192.19C441.57,-192.19 529.57,-192.19 529.57,-192.19 535.57,-192.19 541.57,-198.19 541.57,-204.19 541.57,-204.19 541.57,-216.19 541.57,-216.19 541.57,-222.19 535.57,-228.19 529.57,-228.19 529.57,-228.19 441.57,-228.19 441.57,-228.19 435.57,-228.19 429.57,-222.19 429.57,-216.19 429.57,-216.19 429.57,-204.19 429.57,-204.19 429.57,-198.19 435.57,-192.19 441.57,-192.19"/>
<text text-anchor="middle" x="485.57" y="-206.49" font-family="Arial" font-size="14.00" fill="#000000">l2_controllers15</text>
</g>
<!-- board.cache_hierarchy.ruby_system.l2_controllers15&#45;&#45;board.cache_hierarchy.ruby_system.network.l2_switch_15 -->
<g id="edge64" class="edge">
<title>board.cache_hierarchy.ruby_system.l2_controllers15&#45;&#45;board.cache_hierarchy.ruby_system.network.l2_switch_15</title>
<path fill="none" stroke="#381526" d="M456.13,-234.88C452.42,-237.99 448.63,-241.17 444.91,-244.29"/>
<polygon fill="#381526" stroke="#381526" points="458.63,-237.35 464.04,-228.24 454.13,-231.99 458.63,-237.35"/>
<polygon fill="#381526" stroke="#381526" points="442.4,-241.83 436.98,-250.94 446.89,-247.19 442.4,-241.83"/>
</g>
<!-- board.cache_hierarchy.ruby_system.directory_controllers -->
<g id="node66" class="node">
<title>board.cache_hierarchy.ruby_system.directory_controllers</title>
<path fill="#e5bcd0" stroke="#000000" d="M248.1,-254.14C248.1,-254.14 362.1,-254.14 362.1,-254.14 368.1,-254.14 374.1,-260.14 374.1,-266.14 374.1,-266.14 374.1,-278.14 374.1,-278.14 374.1,-284.14 368.1,-290.14 362.1,-290.14 362.1,-290.14 248.1,-290.14 248.1,-290.14 242.1,-290.14 236.1,-284.14 236.1,-278.14 236.1,-278.14 236.1,-266.14 236.1,-266.14 236.1,-260.14 242.1,-254.14 248.1,-254.14"/>
<text text-anchor="middle" x="305.1" y="-268.44" font-family="Arial" font-size="14.00" fill="#000000">directory_controllers</text>
</g>
<!-- board.cache_hierarchy.ruby_system.directory_controllers&#45;&#45;board.cache_hierarchy.ruby_system.network.xbar -->
<g id="edge65" class="edge">
<title>board.cache_hierarchy.ruby_system.directory_controllers&#45;&#45;board.cache_hierarchy.ruby_system.network.xbar</title>
<path fill="none" stroke="#381526" d="M332.46,-286.67C332.46,-286.67 332.47,-286.67 332.47,-286.67"/>
<polygon fill="#381526" stroke="#381526" points="342.91,-288.26 332.42,-286.65 339.61,-294.44 342.91,-288.26"/>
<polygon fill="#381526" stroke="#381526" points="321.98,-285.05 332.48,-286.68 325.3,-278.86 321.98,-285.05"/>
</g>
<!-- board.cache_hierarchy.ruby_system.l1_controllers00 -->
<g id="node67" class="node">
<title>board.cache_hierarchy.ruby_system.l1_controllers00</title>
<path fill="#e5bcd0" stroke="#000000" d="M316.54,-255.97C316.54,-255.97 404.54,-255.97 404.54,-255.97 410.54,-255.97 416.54,-261.97 416.54,-267.97 416.54,-267.97 416.54,-279.97 416.54,-279.97 416.54,-285.97 410.54,-291.97 404.54,-291.97 404.54,-291.97 316.54,-291.97 316.54,-291.97 310.54,-291.97 304.54,-285.97 304.54,-279.97 304.54,-279.97 304.54,-267.97 304.54,-267.97 304.54,-261.97 310.54,-255.97 316.54,-255.97"/>
<text text-anchor="middle" x="360.54" y="-270.27" font-family="Arial" font-size="14.00" fill="#000000">l1_controllers00</text>
</g>
<!-- board.cache_hierarchy.ruby_system.l1_controllers00&#45;&#45;board.cache_hierarchy.ruby_system.network.xbar -->
<g id="edge66" class="edge">
<title>board.cache_hierarchy.ruby_system.l1_controllers00&#45;&#45;board.cache_hierarchy.ruby_system.network.xbar</title>
<path fill="none" stroke="#381526" d="M332.55,-286.67C332.54,-286.67 332.54,-286.67 332.53,-286.68"/>
<polygon fill="#381526" stroke="#381526" points="324.93,-293.99 332.58,-286.65 322.02,-287.61 324.93,-293.99"/>
<polygon fill="#381526" stroke="#381526" points="340.17,-279.31 332.52,-286.68 343.1,-285.69 340.17,-279.31"/>
</g>
</g>
</svg>
